<mxfile host="Electron" modified="2023-09-07T18:03:55.318Z" agent="Mozilla/5.0 (Windows NT 10.0; Win64; x64) AppleWebKit/537.36 (KHTML, like Gecko) draw.io/21.6.8 Chrome/114.0.5735.289 Electron/25.5.0 Safari/537.36" etag="M7pAA7IAflDFsjPPw7My" version="21.6.8" type="device">
  <diagram name="Page-1" id="69vgtsIHNEXSoQWvTR2z">
    <mxGraphModel dx="5375" dy="3153" grid="1" gridSize="12" guides="0" tooltips="1" connect="0" arrows="0" fold="1" page="0" pageScale="1" pageWidth="850" pageHeight="1100" background="#ffffff" math="0" shadow="0">
      <root>
        <mxCell id="0" />
        <mxCell id="1" parent="0" />
        <mxCell id="Rmxxkd6-B8Qs3QBWC23s-10" value="&lt;font style=&quot;font-size: 26px;&quot;&gt;Layer&lt;/font&gt;" style="swimlane;whiteSpace=wrap;html=1;startSize=40;fillColor=#ffe6cc;strokeColor=default;rounded=0;shadow=1;glass=0;" parent="1" vertex="1">
          <mxGeometry x="444" y="-540" width="320" height="220" as="geometry">
            <mxRectangle x="280" y="200" width="140" height="30" as="alternateBounds" />
          </mxGeometry>
        </mxCell>
        <mxCell id="Rmxxkd6-B8Qs3QBWC23s-11" value="&lt;b&gt;Responsibilities&lt;/b&gt;" style="swimlane;fontStyle=0;childLayout=stackLayout;horizontal=1;startSize=40;horizontalStack=0;resizeParent=1;resizeParentMax=0;resizeLast=0;collapsible=1;marginBottom=0;whiteSpace=wrap;html=1;fillColor=#d5e8d4;strokeColor=default;" parent="Rmxxkd6-B8Qs3QBWC23s-10" vertex="1">
          <mxGeometry y="40" width="160" height="180" as="geometry" />
        </mxCell>
        <mxCell id="Rmxxkd6-B8Qs3QBWC23s-12" value="&lt;ol&gt;&lt;li&gt;&amp;nbsp;Have hyperparameters&lt;/li&gt;&lt;li&gt;&lt;br&gt;&lt;/li&gt;&lt;/ol&gt;" style="text;html=1;strokeColor=none;fillColor=none;align=left;verticalAlign=middle;whiteSpace=wrap;rounded=0;" parent="Rmxxkd6-B8Qs3QBWC23s-11" vertex="1">
          <mxGeometry y="40" width="160" height="140" as="geometry" />
        </mxCell>
        <mxCell id="Rmxxkd6-B8Qs3QBWC23s-13" value="&lt;b&gt;Collaborations&lt;/b&gt;" style="swimlane;fontStyle=0;childLayout=stackLayout;horizontal=1;startSize=40;horizontalStack=0;resizeParent=1;resizeParentMax=0;resizeLast=0;collapsible=1;marginBottom=0;whiteSpace=wrap;html=1;fillColor=#e1d5e7;strokeColor=#000000;shadow=0;swimlaneLine=1;glass=0;rounded=0;" parent="Rmxxkd6-B8Qs3QBWC23s-10" vertex="1">
          <mxGeometry x="160" y="40" width="160" height="180" as="geometry" />
        </mxCell>
        <mxCell id="Rmxxkd6-B8Qs3QBWC23s-14" value="&lt;ol&gt;&lt;li&gt;&amp;nbsp;&lt;/li&gt;&lt;/ol&gt;" style="text;html=1;strokeColor=none;fillColor=none;align=left;verticalAlign=middle;whiteSpace=wrap;rounded=0;" parent="Rmxxkd6-B8Qs3QBWC23s-13" vertex="1">
          <mxGeometry y="40" width="160" height="140" as="geometry" />
        </mxCell>
        <mxCell id="Rmxxkd6-B8Qs3QBWC23s-15" value="&lt;font style=&quot;font-size: 26px;&quot;&gt;Edge&lt;/font&gt;" style="swimlane;whiteSpace=wrap;html=1;startSize=40;fillColor=#ffe6cc;strokeColor=default;rounded=0;shadow=1;glass=0;" parent="1" vertex="1">
          <mxGeometry x="894" y="-540" width="320" height="220" as="geometry">
            <mxRectangle x="280" y="200" width="140" height="30" as="alternateBounds" />
          </mxGeometry>
        </mxCell>
        <mxCell id="Rmxxkd6-B8Qs3QBWC23s-16" value="&lt;b&gt;Responsibilities&lt;/b&gt;" style="swimlane;fontStyle=0;childLayout=stackLayout;horizontal=1;startSize=40;horizontalStack=0;resizeParent=1;resizeParentMax=0;resizeLast=0;collapsible=1;marginBottom=0;whiteSpace=wrap;html=1;fillColor=#d5e8d4;strokeColor=default;" parent="Rmxxkd6-B8Qs3QBWC23s-15" vertex="1">
          <mxGeometry y="40" width="160" height="180" as="geometry" />
        </mxCell>
        <mxCell id="Rmxxkd6-B8Qs3QBWC23s-17" value="&lt;ol&gt;&lt;li&gt;&amp;nbsp;&lt;/li&gt;&lt;/ol&gt;" style="text;html=1;strokeColor=none;fillColor=none;align=left;verticalAlign=middle;whiteSpace=wrap;rounded=0;" parent="Rmxxkd6-B8Qs3QBWC23s-16" vertex="1">
          <mxGeometry y="40" width="160" height="140" as="geometry" />
        </mxCell>
        <mxCell id="Rmxxkd6-B8Qs3QBWC23s-18" value="&lt;b&gt;Collaborations&lt;/b&gt;" style="swimlane;fontStyle=0;childLayout=stackLayout;horizontal=1;startSize=40;horizontalStack=0;resizeParent=1;resizeParentMax=0;resizeLast=0;collapsible=1;marginBottom=0;whiteSpace=wrap;html=1;fillColor=#e1d5e7;strokeColor=#000000;shadow=0;swimlaneLine=1;glass=0;rounded=0;" parent="Rmxxkd6-B8Qs3QBWC23s-15" vertex="1">
          <mxGeometry x="160" y="40" width="160" height="180" as="geometry" />
        </mxCell>
        <mxCell id="Rmxxkd6-B8Qs3QBWC23s-19" value="&lt;ol&gt;&lt;li&gt;&amp;nbsp;&lt;/li&gt;&lt;/ol&gt;" style="text;html=1;strokeColor=none;fillColor=none;align=left;verticalAlign=middle;whiteSpace=wrap;rounded=0;" parent="Rmxxkd6-B8Qs3QBWC23s-18" vertex="1">
          <mxGeometry y="40" width="160" height="140" as="geometry" />
        </mxCell>
        <mxCell id="Rmxxkd6-B8Qs3QBWC23s-20" value="&lt;font style=&quot;font-size: 26px;&quot;&gt;Reuse Block&lt;/font&gt;" style="swimlane;whiteSpace=wrap;html=1;startSize=40;fillColor=#ffe6cc;strokeColor=default;rounded=0;shadow=1;glass=0;" parent="1" vertex="1">
          <mxGeometry x="48" y="-300" width="320" height="220" as="geometry">
            <mxRectangle x="280" y="200" width="140" height="30" as="alternateBounds" />
          </mxGeometry>
        </mxCell>
        <mxCell id="Rmxxkd6-B8Qs3QBWC23s-21" value="&lt;b&gt;Responsibilities&lt;/b&gt;" style="swimlane;fontStyle=0;childLayout=stackLayout;horizontal=1;startSize=40;horizontalStack=0;resizeParent=1;resizeParentMax=0;resizeLast=0;collapsible=1;marginBottom=0;whiteSpace=wrap;html=1;fillColor=#d5e8d4;strokeColor=default;" parent="Rmxxkd6-B8Qs3QBWC23s-20" vertex="1">
          <mxGeometry y="40" width="160" height="180" as="geometry" />
        </mxCell>
        <mxCell id="Rmxxkd6-B8Qs3QBWC23s-22" value="&lt;ol&gt;&lt;li&gt;&amp;nbsp;&lt;/li&gt;&lt;/ol&gt;" style="text;html=1;strokeColor=none;fillColor=none;align=left;verticalAlign=middle;whiteSpace=wrap;rounded=0;" parent="Rmxxkd6-B8Qs3QBWC23s-21" vertex="1">
          <mxGeometry y="40" width="160" height="140" as="geometry" />
        </mxCell>
        <mxCell id="Rmxxkd6-B8Qs3QBWC23s-23" value="&lt;b&gt;Collaborations&lt;/b&gt;" style="swimlane;fontStyle=0;childLayout=stackLayout;horizontal=1;startSize=40;horizontalStack=0;resizeParent=1;resizeParentMax=0;resizeLast=0;collapsible=1;marginBottom=0;whiteSpace=wrap;html=1;fillColor=#e1d5e7;strokeColor=#000000;shadow=0;swimlaneLine=1;glass=0;rounded=0;" parent="Rmxxkd6-B8Qs3QBWC23s-20" vertex="1">
          <mxGeometry x="160" y="40" width="160" height="180" as="geometry" />
        </mxCell>
        <mxCell id="Rmxxkd6-B8Qs3QBWC23s-24" value="&lt;ol&gt;&lt;li&gt;&amp;nbsp;&lt;/li&gt;&lt;/ol&gt;" style="text;html=1;strokeColor=none;fillColor=none;align=left;verticalAlign=middle;whiteSpace=wrap;rounded=0;" parent="Rmxxkd6-B8Qs3QBWC23s-23" vertex="1">
          <mxGeometry y="40" width="160" height="140" as="geometry" />
        </mxCell>
        <mxCell id="Rmxxkd6-B8Qs3QBWC23s-25" value="&lt;font style=&quot;font-size: 26px;&quot;&gt;Repeater&lt;/font&gt;" style="swimlane;whiteSpace=wrap;html=1;startSize=40;fillColor=#ffe6cc;strokeColor=default;rounded=0;shadow=1;glass=0;" parent="1" vertex="1">
          <mxGeometry x="492" y="-192" width="320" height="220" as="geometry">
            <mxRectangle x="280" y="200" width="140" height="30" as="alternateBounds" />
          </mxGeometry>
        </mxCell>
        <mxCell id="Rmxxkd6-B8Qs3QBWC23s-26" value="&lt;b&gt;Responsibilities&lt;/b&gt;" style="swimlane;fontStyle=0;childLayout=stackLayout;horizontal=1;startSize=40;horizontalStack=0;resizeParent=1;resizeParentMax=0;resizeLast=0;collapsible=1;marginBottom=0;whiteSpace=wrap;html=1;fillColor=#d5e8d4;strokeColor=default;" parent="Rmxxkd6-B8Qs3QBWC23s-25" vertex="1">
          <mxGeometry y="40" width="160" height="180" as="geometry" />
        </mxCell>
        <mxCell id="Rmxxkd6-B8Qs3QBWC23s-27" value="&lt;ol&gt;&lt;li&gt;&amp;nbsp;&lt;/li&gt;&lt;/ol&gt;" style="text;html=1;strokeColor=none;fillColor=none;align=left;verticalAlign=middle;whiteSpace=wrap;rounded=0;" parent="Rmxxkd6-B8Qs3QBWC23s-26" vertex="1">
          <mxGeometry y="40" width="160" height="140" as="geometry" />
        </mxCell>
        <mxCell id="Rmxxkd6-B8Qs3QBWC23s-28" value="&lt;b&gt;Collaborations&lt;/b&gt;" style="swimlane;fontStyle=0;childLayout=stackLayout;horizontal=1;startSize=40;horizontalStack=0;resizeParent=1;resizeParentMax=0;resizeLast=0;collapsible=1;marginBottom=0;whiteSpace=wrap;html=1;fillColor=#e1d5e7;strokeColor=#000000;shadow=0;swimlaneLine=1;glass=0;rounded=0;" parent="Rmxxkd6-B8Qs3QBWC23s-25" vertex="1">
          <mxGeometry x="160" y="40" width="160" height="180" as="geometry" />
        </mxCell>
        <mxCell id="Rmxxkd6-B8Qs3QBWC23s-29" value="&lt;ol&gt;&lt;li&gt;&amp;nbsp;&lt;/li&gt;&lt;/ol&gt;" style="text;html=1;strokeColor=none;fillColor=none;align=left;verticalAlign=middle;whiteSpace=wrap;rounded=0;" parent="Rmxxkd6-B8Qs3QBWC23s-28" vertex="1">
          <mxGeometry y="40" width="160" height="140" as="geometry" />
        </mxCell>
        <mxCell id="Rmxxkd6-B8Qs3QBWC23s-30" value="&lt;font style=&quot;font-size: 26px;&quot;&gt;Packing Block&lt;/font&gt;" style="swimlane;whiteSpace=wrap;html=1;startSize=40;fillColor=#ffe6cc;strokeColor=default;rounded=0;shadow=1;glass=0;" parent="1" vertex="1">
          <mxGeometry x="984" y="-192" width="320" height="220" as="geometry">
            <mxRectangle x="280" y="200" width="140" height="30" as="alternateBounds" />
          </mxGeometry>
        </mxCell>
        <mxCell id="Rmxxkd6-B8Qs3QBWC23s-31" value="&lt;b&gt;Responsibilities&lt;/b&gt;" style="swimlane;fontStyle=0;childLayout=stackLayout;horizontal=1;startSize=40;horizontalStack=0;resizeParent=1;resizeParentMax=0;resizeLast=0;collapsible=1;marginBottom=0;whiteSpace=wrap;html=1;fillColor=#d5e8d4;strokeColor=default;" parent="Rmxxkd6-B8Qs3QBWC23s-30" vertex="1">
          <mxGeometry y="40" width="160" height="180" as="geometry" />
        </mxCell>
        <mxCell id="Rmxxkd6-B8Qs3QBWC23s-32" value="&lt;ol&gt;&lt;li&gt;&amp;nbsp;&lt;/li&gt;&lt;/ol&gt;" style="text;html=1;strokeColor=none;fillColor=none;align=left;verticalAlign=middle;whiteSpace=wrap;rounded=0;" parent="Rmxxkd6-B8Qs3QBWC23s-31" vertex="1">
          <mxGeometry y="40" width="160" height="140" as="geometry" />
        </mxCell>
        <mxCell id="Rmxxkd6-B8Qs3QBWC23s-33" value="&lt;b&gt;Collaborations&lt;/b&gt;" style="swimlane;fontStyle=0;childLayout=stackLayout;horizontal=1;startSize=40;horizontalStack=0;resizeParent=1;resizeParentMax=0;resizeLast=0;collapsible=1;marginBottom=0;whiteSpace=wrap;html=1;fillColor=#e1d5e7;strokeColor=#000000;shadow=0;swimlaneLine=1;glass=0;rounded=0;" parent="Rmxxkd6-B8Qs3QBWC23s-30" vertex="1">
          <mxGeometry x="160" y="40" width="160" height="180" as="geometry" />
        </mxCell>
        <mxCell id="Rmxxkd6-B8Qs3QBWC23s-34" value="&lt;ol&gt;&lt;li&gt;&amp;nbsp;&lt;/li&gt;&lt;/ol&gt;" style="text;html=1;strokeColor=none;fillColor=none;align=left;verticalAlign=middle;whiteSpace=wrap;rounded=0;" parent="Rmxxkd6-B8Qs3QBWC23s-33" vertex="1">
          <mxGeometry y="40" width="160" height="140" as="geometry" />
        </mxCell>
        <mxCell id="Rmxxkd6-B8Qs3QBWC23s-35" value="&lt;font style=&quot;font-size: 26px;&quot;&gt;Unpacking Block&lt;/font&gt;" style="swimlane;whiteSpace=wrap;html=1;startSize=40;fillColor=#ffe6cc;strokeColor=default;rounded=0;shadow=1;glass=0;" parent="1" vertex="1">
          <mxGeometry x="1344" y="-192" width="320" height="220" as="geometry">
            <mxRectangle x="280" y="200" width="140" height="30" as="alternateBounds" />
          </mxGeometry>
        </mxCell>
        <mxCell id="Rmxxkd6-B8Qs3QBWC23s-36" value="&lt;b&gt;Responsibilities&lt;/b&gt;" style="swimlane;fontStyle=0;childLayout=stackLayout;horizontal=1;startSize=40;horizontalStack=0;resizeParent=1;resizeParentMax=0;resizeLast=0;collapsible=1;marginBottom=0;whiteSpace=wrap;html=1;fillColor=#d5e8d4;strokeColor=default;" parent="Rmxxkd6-B8Qs3QBWC23s-35" vertex="1">
          <mxGeometry y="40" width="160" height="180" as="geometry" />
        </mxCell>
        <mxCell id="Rmxxkd6-B8Qs3QBWC23s-37" value="&lt;ol&gt;&lt;li&gt;&amp;nbsp;&lt;/li&gt;&lt;/ol&gt;" style="text;html=1;strokeColor=none;fillColor=none;align=left;verticalAlign=middle;whiteSpace=wrap;rounded=0;" parent="Rmxxkd6-B8Qs3QBWC23s-36" vertex="1">
          <mxGeometry y="40" width="160" height="140" as="geometry" />
        </mxCell>
        <mxCell id="Rmxxkd6-B8Qs3QBWC23s-38" value="&lt;b&gt;Collaborations&lt;/b&gt;" style="swimlane;fontStyle=0;childLayout=stackLayout;horizontal=1;startSize=40;horizontalStack=0;resizeParent=1;resizeParentMax=0;resizeLast=0;collapsible=1;marginBottom=0;whiteSpace=wrap;html=1;fillColor=#e1d5e7;strokeColor=#000000;shadow=0;swimlaneLine=1;glass=0;rounded=0;" parent="Rmxxkd6-B8Qs3QBWC23s-35" vertex="1">
          <mxGeometry x="160" y="40" width="160" height="180" as="geometry" />
        </mxCell>
        <mxCell id="Rmxxkd6-B8Qs3QBWC23s-39" value="&lt;ol&gt;&lt;li&gt;&amp;nbsp;&lt;/li&gt;&lt;/ol&gt;" style="text;html=1;strokeColor=none;fillColor=none;align=left;verticalAlign=middle;whiteSpace=wrap;rounded=0;" parent="Rmxxkd6-B8Qs3QBWC23s-38" vertex="1">
          <mxGeometry y="40" width="160" height="140" as="geometry" />
        </mxCell>
        <mxCell id="Rmxxkd6-B8Qs3QBWC23s-40" value="&lt;font style=&quot;font-size: 26px;&quot;&gt;Canvas&lt;/font&gt;" style="swimlane;whiteSpace=wrap;html=1;startSize=40;fillColor=#ffe6cc;strokeColor=default;rounded=0;shadow=1;glass=0;" parent="1" vertex="1">
          <mxGeometry x="84" y="-792" width="320" height="220" as="geometry">
            <mxRectangle x="280" y="200" width="140" height="30" as="alternateBounds" />
          </mxGeometry>
        </mxCell>
        <mxCell id="Rmxxkd6-B8Qs3QBWC23s-41" value="&lt;b&gt;Responsibilities&lt;/b&gt;" style="swimlane;fontStyle=0;childLayout=stackLayout;horizontal=1;startSize=40;horizontalStack=0;resizeParent=1;resizeParentMax=0;resizeLast=0;collapsible=1;marginBottom=0;whiteSpace=wrap;html=1;fillColor=#d5e8d4;strokeColor=default;" parent="Rmxxkd6-B8Qs3QBWC23s-40" vertex="1">
          <mxGeometry y="40" width="160" height="180" as="geometry" />
        </mxCell>
        <mxCell id="Rmxxkd6-B8Qs3QBWC23s-42" value="&lt;ol&gt;&lt;li&gt;&amp;nbsp;&lt;/li&gt;&lt;/ol&gt;" style="text;html=1;strokeColor=none;fillColor=none;align=left;verticalAlign=middle;whiteSpace=wrap;rounded=0;" parent="Rmxxkd6-B8Qs3QBWC23s-41" vertex="1">
          <mxGeometry y="40" width="160" height="140" as="geometry" />
        </mxCell>
        <mxCell id="Rmxxkd6-B8Qs3QBWC23s-43" value="&lt;b&gt;Collaborations&lt;/b&gt;" style="swimlane;fontStyle=0;childLayout=stackLayout;horizontal=1;startSize=40;horizontalStack=0;resizeParent=1;resizeParentMax=0;resizeLast=0;collapsible=1;marginBottom=0;whiteSpace=wrap;html=1;fillColor=#e1d5e7;strokeColor=#000000;shadow=0;swimlaneLine=1;glass=0;rounded=0;" parent="Rmxxkd6-B8Qs3QBWC23s-40" vertex="1">
          <mxGeometry x="160" y="40" width="160" height="180" as="geometry" />
        </mxCell>
        <mxCell id="Rmxxkd6-B8Qs3QBWC23s-44" value="&lt;ol&gt;&lt;li&gt;&amp;nbsp;&lt;/li&gt;&lt;/ol&gt;" style="text;html=1;strokeColor=none;fillColor=none;align=left;verticalAlign=middle;whiteSpace=wrap;rounded=0;" parent="Rmxxkd6-B8Qs3QBWC23s-43" vertex="1">
          <mxGeometry y="40" width="160" height="140" as="geometry" />
        </mxCell>
        <mxCell id="rEXdcL2Eh1WrbeDe-faA-1" value="&lt;font style=&quot;font-size: 26px;&quot;&gt;Input&lt;/font&gt;" style="swimlane;whiteSpace=wrap;html=1;startSize=40;fillColor=#ffe6cc;strokeColor=default;rounded=0;shadow=1;glass=0;" vertex="1" parent="1">
          <mxGeometry x="516" y="-840" width="320" height="220" as="geometry">
            <mxRectangle x="280" y="200" width="140" height="30" as="alternateBounds" />
          </mxGeometry>
        </mxCell>
        <mxCell id="rEXdcL2Eh1WrbeDe-faA-2" value="&lt;b&gt;Responsibilities&lt;/b&gt;" style="swimlane;fontStyle=0;childLayout=stackLayout;horizontal=1;startSize=40;horizontalStack=0;resizeParent=1;resizeParentMax=0;resizeLast=0;collapsible=1;marginBottom=0;whiteSpace=wrap;html=1;fillColor=#d5e8d4;strokeColor=default;" vertex="1" parent="rEXdcL2Eh1WrbeDe-faA-1">
          <mxGeometry y="40" width="160" height="180" as="geometry" />
        </mxCell>
        <mxCell id="rEXdcL2Eh1WrbeDe-faA-3" value="&lt;ol&gt;&lt;li&gt;&amp;nbsp;&lt;/li&gt;&lt;/ol&gt;" style="text;html=1;strokeColor=none;fillColor=none;align=left;verticalAlign=middle;whiteSpace=wrap;rounded=0;" vertex="1" parent="rEXdcL2Eh1WrbeDe-faA-2">
          <mxGeometry y="40" width="160" height="140" as="geometry" />
        </mxCell>
        <mxCell id="rEXdcL2Eh1WrbeDe-faA-4" value="&lt;b&gt;Collaborations&lt;/b&gt;" style="swimlane;fontStyle=0;childLayout=stackLayout;horizontal=1;startSize=40;horizontalStack=0;resizeParent=1;resizeParentMax=0;resizeLast=0;collapsible=1;marginBottom=0;whiteSpace=wrap;html=1;fillColor=#e1d5e7;strokeColor=#000000;shadow=0;swimlaneLine=1;glass=0;rounded=0;" vertex="1" parent="rEXdcL2Eh1WrbeDe-faA-1">
          <mxGeometry x="160" y="40" width="160" height="180" as="geometry" />
        </mxCell>
        <mxCell id="rEXdcL2Eh1WrbeDe-faA-5" value="&lt;ol&gt;&lt;li&gt;&amp;nbsp;&lt;/li&gt;&lt;/ol&gt;" style="text;html=1;strokeColor=none;fillColor=none;align=left;verticalAlign=middle;whiteSpace=wrap;rounded=0;" vertex="1" parent="rEXdcL2Eh1WrbeDe-faA-4">
          <mxGeometry y="40" width="160" height="140" as="geometry" />
        </mxCell>
        <mxCell id="rEXdcL2Eh1WrbeDe-faA-6" value="&lt;font style=&quot;font-size: 26px;&quot;&gt;Output&lt;/font&gt;" style="swimlane;whiteSpace=wrap;html=1;startSize=40;fillColor=#ffe6cc;strokeColor=default;rounded=0;shadow=1;glass=0;" vertex="1" parent="1">
          <mxGeometry x="900" y="-972" width="320" height="220" as="geometry">
            <mxRectangle x="280" y="200" width="140" height="30" as="alternateBounds" />
          </mxGeometry>
        </mxCell>
        <mxCell id="rEXdcL2Eh1WrbeDe-faA-7" value="&lt;b&gt;Responsibilities&lt;/b&gt;" style="swimlane;fontStyle=0;childLayout=stackLayout;horizontal=1;startSize=40;horizontalStack=0;resizeParent=1;resizeParentMax=0;resizeLast=0;collapsible=1;marginBottom=0;whiteSpace=wrap;html=1;fillColor=#d5e8d4;strokeColor=default;" vertex="1" parent="rEXdcL2Eh1WrbeDe-faA-6">
          <mxGeometry y="40" width="160" height="180" as="geometry" />
        </mxCell>
        <mxCell id="rEXdcL2Eh1WrbeDe-faA-8" value="&lt;ol&gt;&lt;li&gt;&amp;nbsp;&lt;/li&gt;&lt;/ol&gt;" style="text;html=1;strokeColor=none;fillColor=none;align=left;verticalAlign=middle;whiteSpace=wrap;rounded=0;" vertex="1" parent="rEXdcL2Eh1WrbeDe-faA-7">
          <mxGeometry y="40" width="160" height="140" as="geometry" />
        </mxCell>
        <mxCell id="rEXdcL2Eh1WrbeDe-faA-9" value="&lt;b&gt;Collaborations&lt;/b&gt;" style="swimlane;fontStyle=0;childLayout=stackLayout;horizontal=1;startSize=40;horizontalStack=0;resizeParent=1;resizeParentMax=0;resizeLast=0;collapsible=1;marginBottom=0;whiteSpace=wrap;html=1;fillColor=#e1d5e7;strokeColor=#000000;shadow=0;swimlaneLine=1;glass=0;rounded=0;" vertex="1" parent="rEXdcL2Eh1WrbeDe-faA-6">
          <mxGeometry x="160" y="40" width="160" height="180" as="geometry" />
        </mxCell>
        <mxCell id="rEXdcL2Eh1WrbeDe-faA-10" value="&lt;ol&gt;&lt;li&gt;&amp;nbsp;&lt;/li&gt;&lt;/ol&gt;" style="text;html=1;strokeColor=none;fillColor=none;align=left;verticalAlign=middle;whiteSpace=wrap;rounded=0;" vertex="1" parent="rEXdcL2Eh1WrbeDe-faA-9">
          <mxGeometry y="40" width="160" height="140" as="geometry" />
        </mxCell>
        <mxCell id="rEXdcL2Eh1WrbeDe-faA-11" value="&lt;font style=&quot;font-size: 26px;&quot;&gt;Command Pallette&lt;/font&gt;" style="swimlane;whiteSpace=wrap;html=1;startSize=40;fillColor=#ffe6cc;strokeColor=default;rounded=0;shadow=1;glass=0;" vertex="1" parent="1">
          <mxGeometry x="456" y="-1188" width="320" height="220" as="geometry">
            <mxRectangle x="280" y="200" width="140" height="30" as="alternateBounds" />
          </mxGeometry>
        </mxCell>
        <mxCell id="rEXdcL2Eh1WrbeDe-faA-12" value="&lt;b&gt;Responsibilities&lt;/b&gt;" style="swimlane;fontStyle=0;childLayout=stackLayout;horizontal=1;startSize=40;horizontalStack=0;resizeParent=1;resizeParentMax=0;resizeLast=0;collapsible=1;marginBottom=0;whiteSpace=wrap;html=1;fillColor=#d5e8d4;strokeColor=default;" vertex="1" parent="rEXdcL2Eh1WrbeDe-faA-11">
          <mxGeometry y="40" width="160" height="180" as="geometry" />
        </mxCell>
        <mxCell id="rEXdcL2Eh1WrbeDe-faA-13" value="&lt;ol&gt;&lt;li&gt;&amp;nbsp;&lt;/li&gt;&lt;/ol&gt;" style="text;html=1;strokeColor=none;fillColor=none;align=left;verticalAlign=middle;whiteSpace=wrap;rounded=0;" vertex="1" parent="rEXdcL2Eh1WrbeDe-faA-12">
          <mxGeometry y="40" width="160" height="140" as="geometry" />
        </mxCell>
        <mxCell id="rEXdcL2Eh1WrbeDe-faA-14" value="&lt;b&gt;Collaborations&lt;/b&gt;" style="swimlane;fontStyle=0;childLayout=stackLayout;horizontal=1;startSize=40;horizontalStack=0;resizeParent=1;resizeParentMax=0;resizeLast=0;collapsible=1;marginBottom=0;whiteSpace=wrap;html=1;fillColor=#e1d5e7;strokeColor=#000000;shadow=0;swimlaneLine=1;glass=0;rounded=0;" vertex="1" parent="rEXdcL2Eh1WrbeDe-faA-11">
          <mxGeometry x="160" y="40" width="160" height="180" as="geometry" />
        </mxCell>
        <mxCell id="rEXdcL2Eh1WrbeDe-faA-15" value="&lt;ol&gt;&lt;li&gt;&amp;nbsp;&lt;/li&gt;&lt;/ol&gt;" style="text;html=1;strokeColor=none;fillColor=none;align=left;verticalAlign=middle;whiteSpace=wrap;rounded=0;" vertex="1" parent="rEXdcL2Eh1WrbeDe-faA-14">
          <mxGeometry y="40" width="160" height="140" as="geometry" />
        </mxCell>
        <mxCell id="rEXdcL2Eh1WrbeDe-faA-16" value="&lt;font style=&quot;font-size: 26px;&quot;&gt;Activations&lt;/font&gt;" style="swimlane;whiteSpace=wrap;html=1;startSize=40;fillColor=#ffe6cc;strokeColor=default;rounded=0;shadow=1;glass=0;" vertex="1" parent="1">
          <mxGeometry x="-1428" y="-1272" width="320" height="220" as="geometry">
            <mxRectangle x="280" y="200" width="140" height="30" as="alternateBounds" />
          </mxGeometry>
        </mxCell>
        <mxCell id="rEXdcL2Eh1WrbeDe-faA-17" value="&lt;b&gt;Responsibilities&lt;/b&gt;" style="swimlane;fontStyle=0;childLayout=stackLayout;horizontal=1;startSize=40;horizontalStack=0;resizeParent=1;resizeParentMax=0;resizeLast=0;collapsible=1;marginBottom=0;whiteSpace=wrap;html=1;fillColor=#d5e8d4;strokeColor=default;" vertex="1" parent="rEXdcL2Eh1WrbeDe-faA-16">
          <mxGeometry y="40" width="160" height="180" as="geometry" />
        </mxCell>
        <mxCell id="rEXdcL2Eh1WrbeDe-faA-18" value="&lt;ol&gt;&lt;li&gt;&amp;nbsp;&lt;/li&gt;&lt;/ol&gt;" style="text;html=1;strokeColor=none;fillColor=none;align=left;verticalAlign=middle;whiteSpace=wrap;rounded=0;" vertex="1" parent="rEXdcL2Eh1WrbeDe-faA-17">
          <mxGeometry y="40" width="160" height="140" as="geometry" />
        </mxCell>
        <mxCell id="rEXdcL2Eh1WrbeDe-faA-19" value="&lt;b&gt;Collaborations&lt;/b&gt;" style="swimlane;fontStyle=0;childLayout=stackLayout;horizontal=1;startSize=40;horizontalStack=0;resizeParent=1;resizeParentMax=0;resizeLast=0;collapsible=1;marginBottom=0;whiteSpace=wrap;html=1;fillColor=#e1d5e7;strokeColor=#000000;shadow=0;swimlaneLine=1;glass=0;rounded=0;" vertex="1" parent="rEXdcL2Eh1WrbeDe-faA-16">
          <mxGeometry x="160" y="40" width="160" height="180" as="geometry" />
        </mxCell>
        <mxCell id="rEXdcL2Eh1WrbeDe-faA-20" value="&lt;ol&gt;&lt;li&gt;&amp;nbsp;&lt;/li&gt;&lt;/ol&gt;" style="text;html=1;strokeColor=none;fillColor=none;align=left;verticalAlign=middle;whiteSpace=wrap;rounded=0;" vertex="1" parent="rEXdcL2Eh1WrbeDe-faA-19">
          <mxGeometry y="40" width="160" height="140" as="geometry" />
        </mxCell>
        <mxCell id="rEXdcL2Eh1WrbeDe-faA-21" value="&lt;font style=&quot;font-size: 26px;&quot;&gt;Callbacks&lt;/font&gt;" style="swimlane;whiteSpace=wrap;html=1;startSize=40;fillColor=#ffe6cc;strokeColor=default;rounded=0;shadow=1;glass=0;" vertex="1" parent="1">
          <mxGeometry x="-1812" y="-1116" width="320" height="220" as="geometry">
            <mxRectangle x="280" y="200" width="140" height="30" as="alternateBounds" />
          </mxGeometry>
        </mxCell>
        <mxCell id="rEXdcL2Eh1WrbeDe-faA-22" value="&lt;b&gt;Responsibilities&lt;/b&gt;" style="swimlane;fontStyle=0;childLayout=stackLayout;horizontal=1;startSize=40;horizontalStack=0;resizeParent=1;resizeParentMax=0;resizeLast=0;collapsible=1;marginBottom=0;whiteSpace=wrap;html=1;fillColor=#d5e8d4;strokeColor=default;" vertex="1" parent="rEXdcL2Eh1WrbeDe-faA-21">
          <mxGeometry y="40" width="160" height="180" as="geometry" />
        </mxCell>
        <mxCell id="rEXdcL2Eh1WrbeDe-faA-23" value="&lt;ol&gt;&lt;li&gt;&amp;nbsp;&lt;/li&gt;&lt;/ol&gt;" style="text;html=1;strokeColor=none;fillColor=none;align=left;verticalAlign=middle;whiteSpace=wrap;rounded=0;" vertex="1" parent="rEXdcL2Eh1WrbeDe-faA-22">
          <mxGeometry y="40" width="160" height="140" as="geometry" />
        </mxCell>
        <mxCell id="rEXdcL2Eh1WrbeDe-faA-24" value="&lt;b&gt;Collaborations&lt;/b&gt;" style="swimlane;fontStyle=0;childLayout=stackLayout;horizontal=1;startSize=40;horizontalStack=0;resizeParent=1;resizeParentMax=0;resizeLast=0;collapsible=1;marginBottom=0;whiteSpace=wrap;html=1;fillColor=#e1d5e7;strokeColor=#000000;shadow=0;swimlaneLine=1;glass=0;rounded=0;" vertex="1" parent="rEXdcL2Eh1WrbeDe-faA-21">
          <mxGeometry x="160" y="40" width="160" height="180" as="geometry" />
        </mxCell>
        <mxCell id="rEXdcL2Eh1WrbeDe-faA-25" value="&lt;ol&gt;&lt;li&gt;&amp;nbsp;&lt;/li&gt;&lt;/ol&gt;" style="text;html=1;strokeColor=none;fillColor=none;align=left;verticalAlign=middle;whiteSpace=wrap;rounded=0;" vertex="1" parent="rEXdcL2Eh1WrbeDe-faA-24">
          <mxGeometry y="40" width="160" height="140" as="geometry" />
        </mxCell>
        <mxCell id="rEXdcL2Eh1WrbeDe-faA-26" value="&lt;font style=&quot;font-size: 26px;&quot;&gt;Constraints&lt;/font&gt;" style="swimlane;whiteSpace=wrap;html=1;startSize=40;fillColor=#ffe6cc;strokeColor=default;rounded=0;shadow=1;glass=0;" vertex="1" parent="1">
          <mxGeometry x="-588" y="-1008" width="320" height="220" as="geometry">
            <mxRectangle x="280" y="200" width="140" height="30" as="alternateBounds" />
          </mxGeometry>
        </mxCell>
        <mxCell id="rEXdcL2Eh1WrbeDe-faA-27" value="&lt;b&gt;Responsibilities&lt;/b&gt;" style="swimlane;fontStyle=0;childLayout=stackLayout;horizontal=1;startSize=40;horizontalStack=0;resizeParent=1;resizeParentMax=0;resizeLast=0;collapsible=1;marginBottom=0;whiteSpace=wrap;html=1;fillColor=#d5e8d4;strokeColor=default;" vertex="1" parent="rEXdcL2Eh1WrbeDe-faA-26">
          <mxGeometry y="40" width="160" height="180" as="geometry" />
        </mxCell>
        <mxCell id="rEXdcL2Eh1WrbeDe-faA-28" value="&lt;ol&gt;&lt;li&gt;&amp;nbsp;&lt;/li&gt;&lt;/ol&gt;" style="text;html=1;strokeColor=none;fillColor=none;align=left;verticalAlign=middle;whiteSpace=wrap;rounded=0;" vertex="1" parent="rEXdcL2Eh1WrbeDe-faA-27">
          <mxGeometry y="40" width="160" height="140" as="geometry" />
        </mxCell>
        <mxCell id="rEXdcL2Eh1WrbeDe-faA-29" value="&lt;b&gt;Collaborations&lt;/b&gt;" style="swimlane;fontStyle=0;childLayout=stackLayout;horizontal=1;startSize=40;horizontalStack=0;resizeParent=1;resizeParentMax=0;resizeLast=0;collapsible=1;marginBottom=0;whiteSpace=wrap;html=1;fillColor=#e1d5e7;strokeColor=#000000;shadow=0;swimlaneLine=1;glass=0;rounded=0;" vertex="1" parent="rEXdcL2Eh1WrbeDe-faA-26">
          <mxGeometry x="160" y="40" width="160" height="180" as="geometry" />
        </mxCell>
        <mxCell id="rEXdcL2Eh1WrbeDe-faA-30" value="&lt;ol&gt;&lt;li&gt;&amp;nbsp;&lt;/li&gt;&lt;/ol&gt;" style="text;html=1;strokeColor=none;fillColor=none;align=left;verticalAlign=middle;whiteSpace=wrap;rounded=0;" vertex="1" parent="rEXdcL2Eh1WrbeDe-faA-29">
          <mxGeometry y="40" width="160" height="140" as="geometry" />
        </mxCell>
        <mxCell id="rEXdcL2Eh1WrbeDe-faA-31" value="&lt;font style=&quot;font-size: 26px;&quot;&gt;Initializers&lt;/font&gt;" style="swimlane;whiteSpace=wrap;html=1;startSize=40;fillColor=#ffe6cc;strokeColor=default;rounded=0;shadow=1;glass=0;" vertex="1" parent="1">
          <mxGeometry x="-1032" y="-1068" width="320" height="220" as="geometry">
            <mxRectangle x="280" y="200" width="140" height="30" as="alternateBounds" />
          </mxGeometry>
        </mxCell>
        <mxCell id="rEXdcL2Eh1WrbeDe-faA-32" value="&lt;b&gt;Responsibilities&lt;/b&gt;" style="swimlane;fontStyle=0;childLayout=stackLayout;horizontal=1;startSize=40;horizontalStack=0;resizeParent=1;resizeParentMax=0;resizeLast=0;collapsible=1;marginBottom=0;whiteSpace=wrap;html=1;fillColor=#d5e8d4;strokeColor=default;" vertex="1" parent="rEXdcL2Eh1WrbeDe-faA-31">
          <mxGeometry y="40" width="160" height="180" as="geometry" />
        </mxCell>
        <mxCell id="rEXdcL2Eh1WrbeDe-faA-33" value="&lt;ol&gt;&lt;li&gt;&amp;nbsp;&lt;/li&gt;&lt;/ol&gt;" style="text;html=1;strokeColor=none;fillColor=none;align=left;verticalAlign=middle;whiteSpace=wrap;rounded=0;" vertex="1" parent="rEXdcL2Eh1WrbeDe-faA-32">
          <mxGeometry y="40" width="160" height="140" as="geometry" />
        </mxCell>
        <mxCell id="rEXdcL2Eh1WrbeDe-faA-34" value="&lt;b&gt;Collaborations&lt;/b&gt;" style="swimlane;fontStyle=0;childLayout=stackLayout;horizontal=1;startSize=40;horizontalStack=0;resizeParent=1;resizeParentMax=0;resizeLast=0;collapsible=1;marginBottom=0;whiteSpace=wrap;html=1;fillColor=#e1d5e7;strokeColor=#000000;shadow=0;swimlaneLine=1;glass=0;rounded=0;" vertex="1" parent="rEXdcL2Eh1WrbeDe-faA-31">
          <mxGeometry x="160" y="40" width="160" height="180" as="geometry" />
        </mxCell>
        <mxCell id="rEXdcL2Eh1WrbeDe-faA-35" value="&lt;ol&gt;&lt;li&gt;&amp;nbsp;&lt;/li&gt;&lt;/ol&gt;" style="text;html=1;strokeColor=none;fillColor=none;align=left;verticalAlign=middle;whiteSpace=wrap;rounded=0;" vertex="1" parent="rEXdcL2Eh1WrbeDe-faA-34">
          <mxGeometry y="40" width="160" height="140" as="geometry" />
        </mxCell>
        <mxCell id="rEXdcL2Eh1WrbeDe-faA-36" value="&lt;font style=&quot;font-size: 26px;&quot;&gt;Losses&lt;/font&gt;" style="swimlane;whiteSpace=wrap;html=1;startSize=40;fillColor=#ffe6cc;strokeColor=default;rounded=0;shadow=1;glass=0;" vertex="1" parent="1">
          <mxGeometry x="-1080" y="-756" width="320" height="220" as="geometry">
            <mxRectangle x="280" y="200" width="140" height="30" as="alternateBounds" />
          </mxGeometry>
        </mxCell>
        <mxCell id="rEXdcL2Eh1WrbeDe-faA-37" value="&lt;b&gt;Responsibilities&lt;/b&gt;" style="swimlane;fontStyle=0;childLayout=stackLayout;horizontal=1;startSize=40;horizontalStack=0;resizeParent=1;resizeParentMax=0;resizeLast=0;collapsible=1;marginBottom=0;whiteSpace=wrap;html=1;fillColor=#d5e8d4;strokeColor=default;" vertex="1" parent="rEXdcL2Eh1WrbeDe-faA-36">
          <mxGeometry y="40" width="160" height="180" as="geometry" />
        </mxCell>
        <mxCell id="rEXdcL2Eh1WrbeDe-faA-38" value="&lt;ol&gt;&lt;li&gt;&amp;nbsp;&lt;/li&gt;&lt;/ol&gt;" style="text;html=1;strokeColor=none;fillColor=none;align=left;verticalAlign=middle;whiteSpace=wrap;rounded=0;" vertex="1" parent="rEXdcL2Eh1WrbeDe-faA-37">
          <mxGeometry y="40" width="160" height="140" as="geometry" />
        </mxCell>
        <mxCell id="rEXdcL2Eh1WrbeDe-faA-39" value="&lt;b&gt;Collaborations&lt;/b&gt;" style="swimlane;fontStyle=0;childLayout=stackLayout;horizontal=1;startSize=40;horizontalStack=0;resizeParent=1;resizeParentMax=0;resizeLast=0;collapsible=1;marginBottom=0;whiteSpace=wrap;html=1;fillColor=#e1d5e7;strokeColor=#000000;shadow=0;swimlaneLine=1;glass=0;rounded=0;" vertex="1" parent="rEXdcL2Eh1WrbeDe-faA-36">
          <mxGeometry x="160" y="40" width="160" height="180" as="geometry" />
        </mxCell>
        <mxCell id="rEXdcL2Eh1WrbeDe-faA-40" value="&lt;ol&gt;&lt;li&gt;&amp;nbsp;&lt;/li&gt;&lt;/ol&gt;" style="text;html=1;strokeColor=none;fillColor=none;align=left;verticalAlign=middle;whiteSpace=wrap;rounded=0;" vertex="1" parent="rEXdcL2Eh1WrbeDe-faA-39">
          <mxGeometry y="40" width="160" height="140" as="geometry" />
        </mxCell>
        <mxCell id="rEXdcL2Eh1WrbeDe-faA-41" value="&lt;font style=&quot;font-size: 26px;&quot;&gt;Metrics&lt;/font&gt;" style="swimlane;whiteSpace=wrap;html=1;startSize=40;fillColor=#ffe6cc;strokeColor=default;rounded=0;shadow=1;glass=0;" vertex="1" parent="1">
          <mxGeometry x="-1716" y="-252" width="320" height="220" as="geometry">
            <mxRectangle x="280" y="200" width="140" height="30" as="alternateBounds" />
          </mxGeometry>
        </mxCell>
        <mxCell id="rEXdcL2Eh1WrbeDe-faA-42" value="&lt;b&gt;Responsibilities&lt;/b&gt;" style="swimlane;fontStyle=0;childLayout=stackLayout;horizontal=1;startSize=40;horizontalStack=0;resizeParent=1;resizeParentMax=0;resizeLast=0;collapsible=1;marginBottom=0;whiteSpace=wrap;html=1;fillColor=#d5e8d4;strokeColor=default;" vertex="1" parent="rEXdcL2Eh1WrbeDe-faA-41">
          <mxGeometry y="40" width="160" height="180" as="geometry" />
        </mxCell>
        <mxCell id="rEXdcL2Eh1WrbeDe-faA-43" value="&lt;ol&gt;&lt;li&gt;&amp;nbsp;&lt;/li&gt;&lt;/ol&gt;" style="text;html=1;strokeColor=none;fillColor=none;align=left;verticalAlign=middle;whiteSpace=wrap;rounded=0;" vertex="1" parent="rEXdcL2Eh1WrbeDe-faA-42">
          <mxGeometry y="40" width="160" height="140" as="geometry" />
        </mxCell>
        <mxCell id="rEXdcL2Eh1WrbeDe-faA-44" value="&lt;b&gt;Collaborations&lt;/b&gt;" style="swimlane;fontStyle=0;childLayout=stackLayout;horizontal=1;startSize=40;horizontalStack=0;resizeParent=1;resizeParentMax=0;resizeLast=0;collapsible=1;marginBottom=0;whiteSpace=wrap;html=1;fillColor=#e1d5e7;strokeColor=#000000;shadow=0;swimlaneLine=1;glass=0;rounded=0;" vertex="1" parent="rEXdcL2Eh1WrbeDe-faA-41">
          <mxGeometry x="160" y="40" width="160" height="180" as="geometry" />
        </mxCell>
        <mxCell id="rEXdcL2Eh1WrbeDe-faA-45" value="&lt;ol&gt;&lt;li&gt;&amp;nbsp;&lt;/li&gt;&lt;/ol&gt;" style="text;html=1;strokeColor=none;fillColor=none;align=left;verticalAlign=middle;whiteSpace=wrap;rounded=0;" vertex="1" parent="rEXdcL2Eh1WrbeDe-faA-44">
          <mxGeometry y="40" width="160" height="140" as="geometry" />
        </mxCell>
        <mxCell id="rEXdcL2Eh1WrbeDe-faA-46" value="&lt;font style=&quot;font-size: 26px;&quot;&gt;TF Configuration Options&lt;/font&gt;" style="swimlane;whiteSpace=wrap;html=1;startSize=40;fillColor=#ffe6cc;strokeColor=default;rounded=0;shadow=1;glass=0;" vertex="1" parent="1">
          <mxGeometry x="-828" y="-360" width="360" height="220" as="geometry">
            <mxRectangle x="280" y="200" width="140" height="30" as="alternateBounds" />
          </mxGeometry>
        </mxCell>
        <mxCell id="rEXdcL2Eh1WrbeDe-faA-47" value="&lt;b&gt;Responsibilities&lt;/b&gt;" style="swimlane;fontStyle=0;childLayout=stackLayout;horizontal=1;startSize=40;horizontalStack=0;resizeParent=1;resizeParentMax=0;resizeLast=0;collapsible=1;marginBottom=0;whiteSpace=wrap;html=1;fillColor=#d5e8d4;strokeColor=default;" vertex="1" parent="rEXdcL2Eh1WrbeDe-faA-46">
          <mxGeometry y="40" width="180" height="180" as="geometry" />
        </mxCell>
        <mxCell id="rEXdcL2Eh1WrbeDe-faA-48" value="&lt;ol&gt;&lt;li&gt;&amp;nbsp;&lt;/li&gt;&lt;/ol&gt;" style="text;html=1;strokeColor=none;fillColor=none;align=left;verticalAlign=middle;whiteSpace=wrap;rounded=0;" vertex="1" parent="rEXdcL2Eh1WrbeDe-faA-47">
          <mxGeometry y="40" width="180" height="140" as="geometry" />
        </mxCell>
        <mxCell id="rEXdcL2Eh1WrbeDe-faA-49" value="&lt;b&gt;Collaborations&lt;/b&gt;" style="swimlane;fontStyle=0;childLayout=stackLayout;horizontal=1;startSize=40;horizontalStack=0;resizeParent=1;resizeParentMax=0;resizeLast=0;collapsible=1;marginBottom=0;whiteSpace=wrap;html=1;fillColor=#e1d5e7;strokeColor=#000000;shadow=0;swimlaneLine=1;glass=0;rounded=0;" vertex="1" parent="rEXdcL2Eh1WrbeDe-faA-46">
          <mxGeometry x="180" y="40" width="180" height="180" as="geometry" />
        </mxCell>
        <mxCell id="rEXdcL2Eh1WrbeDe-faA-50" value="&lt;ol&gt;&lt;li&gt;&amp;nbsp;&lt;/li&gt;&lt;/ol&gt;" style="text;html=1;strokeColor=none;fillColor=none;align=left;verticalAlign=middle;whiteSpace=wrap;rounded=0;" vertex="1" parent="rEXdcL2Eh1WrbeDe-faA-49">
          <mxGeometry y="40" width="180" height="140" as="geometry" />
        </mxCell>
        <mxCell id="rEXdcL2Eh1WrbeDe-faA-51" value="Order of inputs and their labels matter almost everywhere." style="text;html=1;strokeColor=#666666;fillColor=#f5f5f5;align=center;verticalAlign=middle;whiteSpace=wrap;rounded=0;fontColor=#333333;" vertex="1" parent="1">
          <mxGeometry x="1464" y="-372" width="132" height="84" as="geometry" />
        </mxCell>
        <mxCell id="rEXdcL2Eh1WrbeDe-faA-52" value="&lt;font style=&quot;font-size: 26px;&quot;&gt;Optimizers&lt;/font&gt;" style="swimlane;whiteSpace=wrap;html=1;startSize=40;fillColor=#ffe6cc;strokeColor=default;rounded=0;shadow=1;glass=0;" vertex="1" parent="1">
          <mxGeometry x="-1332" y="-480" width="320" height="220" as="geometry">
            <mxRectangle x="280" y="200" width="140" height="30" as="alternateBounds" />
          </mxGeometry>
        </mxCell>
        <mxCell id="rEXdcL2Eh1WrbeDe-faA-53" value="&lt;b&gt;Responsibilities&lt;/b&gt;" style="swimlane;fontStyle=0;childLayout=stackLayout;horizontal=1;startSize=40;horizontalStack=0;resizeParent=1;resizeParentMax=0;resizeLast=0;collapsible=1;marginBottom=0;whiteSpace=wrap;html=1;fillColor=#d5e8d4;strokeColor=default;" vertex="1" parent="rEXdcL2Eh1WrbeDe-faA-52">
          <mxGeometry y="40" width="160" height="180" as="geometry" />
        </mxCell>
        <mxCell id="rEXdcL2Eh1WrbeDe-faA-54" value="&lt;ol&gt;&lt;li&gt;&amp;nbsp;&lt;/li&gt;&lt;/ol&gt;" style="text;html=1;strokeColor=none;fillColor=none;align=left;verticalAlign=middle;whiteSpace=wrap;rounded=0;" vertex="1" parent="rEXdcL2Eh1WrbeDe-faA-53">
          <mxGeometry y="40" width="160" height="140" as="geometry" />
        </mxCell>
        <mxCell id="rEXdcL2Eh1WrbeDe-faA-55" value="&lt;b&gt;Collaborations&lt;/b&gt;" style="swimlane;fontStyle=0;childLayout=stackLayout;horizontal=1;startSize=40;horizontalStack=0;resizeParent=1;resizeParentMax=0;resizeLast=0;collapsible=1;marginBottom=0;whiteSpace=wrap;html=1;fillColor=#e1d5e7;strokeColor=#000000;shadow=0;swimlaneLine=1;glass=0;rounded=0;" vertex="1" parent="rEXdcL2Eh1WrbeDe-faA-52">
          <mxGeometry x="160" y="40" width="160" height="180" as="geometry" />
        </mxCell>
        <mxCell id="rEXdcL2Eh1WrbeDe-faA-56" value="&lt;ol&gt;&lt;li&gt;&amp;nbsp;&lt;/li&gt;&lt;/ol&gt;" style="text;html=1;strokeColor=none;fillColor=none;align=left;verticalAlign=middle;whiteSpace=wrap;rounded=0;" vertex="1" parent="rEXdcL2Eh1WrbeDe-faA-55">
          <mxGeometry y="40" width="160" height="140" as="geometry" />
        </mxCell>
        <mxCell id="rEXdcL2Eh1WrbeDe-faA-57" value="&lt;font style=&quot;font-size: 26px;&quot;&gt;Regularizers&lt;/font&gt;" style="swimlane;whiteSpace=wrap;html=1;startSize=40;fillColor=#ffe6cc;strokeColor=default;rounded=0;shadow=1;glass=0;" vertex="1" parent="1">
          <mxGeometry x="-1428" y="-1008" width="320" height="220" as="geometry">
            <mxRectangle x="280" y="200" width="140" height="30" as="alternateBounds" />
          </mxGeometry>
        </mxCell>
        <mxCell id="rEXdcL2Eh1WrbeDe-faA-58" value="&lt;b&gt;Responsibilities&lt;/b&gt;" style="swimlane;fontStyle=0;childLayout=stackLayout;horizontal=1;startSize=40;horizontalStack=0;resizeParent=1;resizeParentMax=0;resizeLast=0;collapsible=1;marginBottom=0;whiteSpace=wrap;html=1;fillColor=#d5e8d4;strokeColor=default;" vertex="1" parent="rEXdcL2Eh1WrbeDe-faA-57">
          <mxGeometry y="40" width="160" height="180" as="geometry" />
        </mxCell>
        <mxCell id="rEXdcL2Eh1WrbeDe-faA-59" value="&lt;ol&gt;&lt;li&gt;&amp;nbsp;&lt;/li&gt;&lt;/ol&gt;" style="text;html=1;strokeColor=none;fillColor=none;align=left;verticalAlign=middle;whiteSpace=wrap;rounded=0;" vertex="1" parent="rEXdcL2Eh1WrbeDe-faA-58">
          <mxGeometry y="40" width="160" height="140" as="geometry" />
        </mxCell>
        <mxCell id="rEXdcL2Eh1WrbeDe-faA-60" value="&lt;b&gt;Collaborations&lt;/b&gt;" style="swimlane;fontStyle=0;childLayout=stackLayout;horizontal=1;startSize=40;horizontalStack=0;resizeParent=1;resizeParentMax=0;resizeLast=0;collapsible=1;marginBottom=0;whiteSpace=wrap;html=1;fillColor=#e1d5e7;strokeColor=#000000;shadow=0;swimlaneLine=1;glass=0;rounded=0;" vertex="1" parent="rEXdcL2Eh1WrbeDe-faA-57">
          <mxGeometry x="160" y="40" width="160" height="180" as="geometry" />
        </mxCell>
        <mxCell id="rEXdcL2Eh1WrbeDe-faA-61" value="&lt;ol&gt;&lt;li&gt;&amp;nbsp;&lt;/li&gt;&lt;/ol&gt;" style="text;html=1;strokeColor=none;fillColor=none;align=left;verticalAlign=middle;whiteSpace=wrap;rounded=0;" vertex="1" parent="rEXdcL2Eh1WrbeDe-faA-60">
          <mxGeometry y="40" width="160" height="140" as="geometry" />
        </mxCell>
        <mxCell id="rEXdcL2Eh1WrbeDe-faA-69" value="&lt;font style=&quot;font-size: 26px;&quot;&gt;Tabs&lt;/font&gt;" style="swimlane;whiteSpace=wrap;html=1;startSize=40;fillColor=#ffe6cc;strokeColor=default;rounded=0;shadow=1;glass=0;" vertex="1" parent="1">
          <mxGeometry x="-180" y="-540" width="320" height="220" as="geometry">
            <mxRectangle x="280" y="200" width="140" height="30" as="alternateBounds" />
          </mxGeometry>
        </mxCell>
        <mxCell id="rEXdcL2Eh1WrbeDe-faA-70" value="&lt;b&gt;Responsibilities&lt;/b&gt;" style="swimlane;fontStyle=0;childLayout=stackLayout;horizontal=1;startSize=40;horizontalStack=0;resizeParent=1;resizeParentMax=0;resizeLast=0;collapsible=1;marginBottom=0;whiteSpace=wrap;html=1;fillColor=#d5e8d4;strokeColor=default;" vertex="1" parent="rEXdcL2Eh1WrbeDe-faA-69">
          <mxGeometry y="40" width="160" height="180" as="geometry" />
        </mxCell>
        <mxCell id="rEXdcL2Eh1WrbeDe-faA-71" value="&lt;ol&gt;&lt;li&gt;&amp;nbsp;&lt;/li&gt;&lt;/ol&gt;" style="text;html=1;strokeColor=none;fillColor=none;align=left;verticalAlign=middle;whiteSpace=wrap;rounded=0;" vertex="1" parent="rEXdcL2Eh1WrbeDe-faA-70">
          <mxGeometry y="40" width="160" height="140" as="geometry" />
        </mxCell>
        <mxCell id="rEXdcL2Eh1WrbeDe-faA-72" value="&lt;b&gt;Collaborations&lt;/b&gt;" style="swimlane;fontStyle=0;childLayout=stackLayout;horizontal=1;startSize=40;horizontalStack=0;resizeParent=1;resizeParentMax=0;resizeLast=0;collapsible=1;marginBottom=0;whiteSpace=wrap;html=1;fillColor=#e1d5e7;strokeColor=#000000;shadow=0;swimlaneLine=1;glass=0;rounded=0;" vertex="1" parent="rEXdcL2Eh1WrbeDe-faA-69">
          <mxGeometry x="160" y="40" width="160" height="180" as="geometry" />
        </mxCell>
        <mxCell id="rEXdcL2Eh1WrbeDe-faA-73" value="&lt;ol&gt;&lt;li&gt;&amp;nbsp;&lt;/li&gt;&lt;/ol&gt;" style="text;html=1;strokeColor=none;fillColor=none;align=left;verticalAlign=middle;whiteSpace=wrap;rounded=0;" vertex="1" parent="rEXdcL2Eh1WrbeDe-faA-72">
          <mxGeometry y="40" width="160" height="140" as="geometry" />
        </mxCell>
        <mxCell id="rEXdcL2Eh1WrbeDe-faA-74" value="&lt;font style=&quot;font-size: 26px;&quot;&gt;Working Area&lt;/font&gt;" style="swimlane;whiteSpace=wrap;html=1;startSize=40;fillColor=#ffe6cc;strokeColor=default;rounded=0;shadow=1;glass=0;" vertex="1" parent="1">
          <mxGeometry x="-1104" y="-84" width="320" height="220" as="geometry">
            <mxRectangle x="280" y="200" width="140" height="30" as="alternateBounds" />
          </mxGeometry>
        </mxCell>
        <mxCell id="rEXdcL2Eh1WrbeDe-faA-75" value="&lt;b&gt;Responsibilities&lt;/b&gt;" style="swimlane;fontStyle=0;childLayout=stackLayout;horizontal=1;startSize=40;horizontalStack=0;resizeParent=1;resizeParentMax=0;resizeLast=0;collapsible=1;marginBottom=0;whiteSpace=wrap;html=1;fillColor=#d5e8d4;strokeColor=default;" vertex="1" parent="rEXdcL2Eh1WrbeDe-faA-74">
          <mxGeometry y="40" width="160" height="180" as="geometry" />
        </mxCell>
        <mxCell id="rEXdcL2Eh1WrbeDe-faA-76" value="&lt;ol&gt;&lt;li&gt;&amp;nbsp;&lt;/li&gt;&lt;/ol&gt;" style="text;html=1;strokeColor=none;fillColor=none;align=left;verticalAlign=middle;whiteSpace=wrap;rounded=0;" vertex="1" parent="rEXdcL2Eh1WrbeDe-faA-75">
          <mxGeometry y="40" width="160" height="140" as="geometry" />
        </mxCell>
        <mxCell id="rEXdcL2Eh1WrbeDe-faA-77" value="&lt;b&gt;Collaborations&lt;/b&gt;" style="swimlane;fontStyle=0;childLayout=stackLayout;horizontal=1;startSize=40;horizontalStack=0;resizeParent=1;resizeParentMax=0;resizeLast=0;collapsible=1;marginBottom=0;whiteSpace=wrap;html=1;fillColor=#e1d5e7;strokeColor=#000000;shadow=0;swimlaneLine=1;glass=0;rounded=0;" vertex="1" parent="rEXdcL2Eh1WrbeDe-faA-74">
          <mxGeometry x="160" y="40" width="160" height="180" as="geometry" />
        </mxCell>
        <mxCell id="rEXdcL2Eh1WrbeDe-faA-78" value="&lt;ol&gt;&lt;li&gt;&amp;nbsp;&lt;/li&gt;&lt;/ol&gt;" style="text;html=1;strokeColor=none;fillColor=none;align=left;verticalAlign=middle;whiteSpace=wrap;rounded=0;" vertex="1" parent="rEXdcL2Eh1WrbeDe-faA-77">
          <mxGeometry y="40" width="160" height="140" as="geometry" />
        </mxCell>
        <mxCell id="rEXdcL2Eh1WrbeDe-faA-79" value="&lt;font style=&quot;font-size: 26px;&quot;&gt;Training Tab&lt;/font&gt;" style="swimlane;whiteSpace=wrap;html=1;startSize=40;fillColor=#ffe6cc;strokeColor=default;rounded=0;shadow=1;glass=0;" vertex="1" parent="1">
          <mxGeometry x="-336" y="-252" width="320" height="220" as="geometry">
            <mxRectangle x="280" y="200" width="140" height="30" as="alternateBounds" />
          </mxGeometry>
        </mxCell>
        <mxCell id="rEXdcL2Eh1WrbeDe-faA-80" value="&lt;b&gt;Responsibilities&lt;/b&gt;" style="swimlane;fontStyle=0;childLayout=stackLayout;horizontal=1;startSize=40;horizontalStack=0;resizeParent=1;resizeParentMax=0;resizeLast=0;collapsible=1;marginBottom=0;whiteSpace=wrap;html=1;fillColor=#d5e8d4;strokeColor=default;" vertex="1" parent="rEXdcL2Eh1WrbeDe-faA-79">
          <mxGeometry y="40" width="160" height="180" as="geometry" />
        </mxCell>
        <mxCell id="rEXdcL2Eh1WrbeDe-faA-81" value="&lt;ol&gt;&lt;li&gt;&amp;nbsp;&lt;/li&gt;&lt;/ol&gt;" style="text;html=1;strokeColor=none;fillColor=none;align=left;verticalAlign=middle;whiteSpace=wrap;rounded=0;" vertex="1" parent="rEXdcL2Eh1WrbeDe-faA-80">
          <mxGeometry y="40" width="160" height="140" as="geometry" />
        </mxCell>
        <mxCell id="rEXdcL2Eh1WrbeDe-faA-82" value="&lt;b&gt;Collaborations&lt;/b&gt;" style="swimlane;fontStyle=0;childLayout=stackLayout;horizontal=1;startSize=40;horizontalStack=0;resizeParent=1;resizeParentMax=0;resizeLast=0;collapsible=1;marginBottom=0;whiteSpace=wrap;html=1;fillColor=#e1d5e7;strokeColor=#000000;shadow=0;swimlaneLine=1;glass=0;rounded=0;" vertex="1" parent="rEXdcL2Eh1WrbeDe-faA-79">
          <mxGeometry x="160" y="40" width="160" height="180" as="geometry" />
        </mxCell>
        <mxCell id="rEXdcL2Eh1WrbeDe-faA-83" value="&lt;ol&gt;&lt;li&gt;&amp;nbsp;&lt;/li&gt;&lt;/ol&gt;" style="text;html=1;strokeColor=none;fillColor=none;align=left;verticalAlign=middle;whiteSpace=wrap;rounded=0;" vertex="1" parent="rEXdcL2Eh1WrbeDe-faA-82">
          <mxGeometry y="40" width="160" height="140" as="geometry" />
        </mxCell>
        <mxCell id="rEXdcL2Eh1WrbeDe-faA-84" value="&lt;font style=&quot;font-size: 26px;&quot;&gt;Testing Tab&lt;/font&gt;" style="swimlane;whiteSpace=wrap;html=1;startSize=40;fillColor=#ffe6cc;strokeColor=default;rounded=0;shadow=1;glass=0;" vertex="1" parent="1">
          <mxGeometry x="-684" y="-48" width="320" height="220" as="geometry">
            <mxRectangle x="280" y="200" width="140" height="30" as="alternateBounds" />
          </mxGeometry>
        </mxCell>
        <mxCell id="rEXdcL2Eh1WrbeDe-faA-85" value="&lt;b&gt;Responsibilities&lt;/b&gt;" style="swimlane;fontStyle=0;childLayout=stackLayout;horizontal=1;startSize=40;horizontalStack=0;resizeParent=1;resizeParentMax=0;resizeLast=0;collapsible=1;marginBottom=0;whiteSpace=wrap;html=1;fillColor=#d5e8d4;strokeColor=default;" vertex="1" parent="rEXdcL2Eh1WrbeDe-faA-84">
          <mxGeometry y="40" width="160" height="180" as="geometry" />
        </mxCell>
        <mxCell id="rEXdcL2Eh1WrbeDe-faA-86" value="&lt;ol&gt;&lt;li&gt;&amp;nbsp;&lt;/li&gt;&lt;/ol&gt;" style="text;html=1;strokeColor=none;fillColor=none;align=left;verticalAlign=middle;whiteSpace=wrap;rounded=0;" vertex="1" parent="rEXdcL2Eh1WrbeDe-faA-85">
          <mxGeometry y="40" width="160" height="140" as="geometry" />
        </mxCell>
        <mxCell id="rEXdcL2Eh1WrbeDe-faA-87" value="&lt;b&gt;Collaborations&lt;/b&gt;" style="swimlane;fontStyle=0;childLayout=stackLayout;horizontal=1;startSize=40;horizontalStack=0;resizeParent=1;resizeParentMax=0;resizeLast=0;collapsible=1;marginBottom=0;whiteSpace=wrap;html=1;fillColor=#e1d5e7;strokeColor=#000000;shadow=0;swimlaneLine=1;glass=0;rounded=0;" vertex="1" parent="rEXdcL2Eh1WrbeDe-faA-84">
          <mxGeometry x="160" y="40" width="160" height="180" as="geometry" />
        </mxCell>
        <mxCell id="rEXdcL2Eh1WrbeDe-faA-88" value="&lt;ol&gt;&lt;li&gt;&amp;nbsp;&lt;/li&gt;&lt;/ol&gt;" style="text;html=1;strokeColor=none;fillColor=none;align=left;verticalAlign=middle;whiteSpace=wrap;rounded=0;" vertex="1" parent="rEXdcL2Eh1WrbeDe-faA-87">
          <mxGeometry y="40" width="160" height="140" as="geometry" />
        </mxCell>
        <mxCell id="rEXdcL2Eh1WrbeDe-faA-89" value="&lt;font style=&quot;font-size: 26px;&quot;&gt;Hyperparameter Tuning Tab&lt;/font&gt;" style="swimlane;whiteSpace=wrap;html=1;startSize=40;fillColor=#ffe6cc;strokeColor=default;rounded=0;shadow=1;glass=0;" vertex="1" parent="1">
          <mxGeometry x="-240" y="84" width="384" height="220" as="geometry">
            <mxRectangle x="280" y="200" width="140" height="30" as="alternateBounds" />
          </mxGeometry>
        </mxCell>
        <mxCell id="rEXdcL2Eh1WrbeDe-faA-90" value="&lt;b&gt;Responsibilities&lt;/b&gt;" style="swimlane;fontStyle=0;childLayout=stackLayout;horizontal=1;startSize=40;horizontalStack=0;resizeParent=1;resizeParentMax=0;resizeLast=0;collapsible=1;marginBottom=0;whiteSpace=wrap;html=1;fillColor=#d5e8d4;strokeColor=default;" vertex="1" parent="rEXdcL2Eh1WrbeDe-faA-89">
          <mxGeometry y="40" width="192" height="180" as="geometry" />
        </mxCell>
        <mxCell id="rEXdcL2Eh1WrbeDe-faA-91" value="&lt;ol&gt;&lt;li&gt;&amp;nbsp;&lt;/li&gt;&lt;/ol&gt;" style="text;html=1;strokeColor=none;fillColor=none;align=left;verticalAlign=middle;whiteSpace=wrap;rounded=0;" vertex="1" parent="rEXdcL2Eh1WrbeDe-faA-90">
          <mxGeometry y="40" width="192" height="140" as="geometry" />
        </mxCell>
        <mxCell id="rEXdcL2Eh1WrbeDe-faA-92" value="&lt;b&gt;Collaborations&lt;/b&gt;" style="swimlane;fontStyle=0;childLayout=stackLayout;horizontal=1;startSize=40;horizontalStack=0;resizeParent=1;resizeParentMax=0;resizeLast=0;collapsible=1;marginBottom=0;whiteSpace=wrap;html=1;fillColor=#e1d5e7;strokeColor=#000000;shadow=0;swimlaneLine=1;glass=0;rounded=0;" vertex="1" parent="rEXdcL2Eh1WrbeDe-faA-89">
          <mxGeometry x="192" y="40" width="192" height="180" as="geometry" />
        </mxCell>
        <mxCell id="rEXdcL2Eh1WrbeDe-faA-93" value="&lt;ol&gt;&lt;li&gt;&amp;nbsp;&lt;/li&gt;&lt;/ol&gt;" style="text;html=1;strokeColor=none;fillColor=none;align=left;verticalAlign=middle;whiteSpace=wrap;rounded=0;" vertex="1" parent="rEXdcL2Eh1WrbeDe-faA-92">
          <mxGeometry y="40" width="192" height="140" as="geometry" />
        </mxCell>
        <mxCell id="rEXdcL2Eh1WrbeDe-faA-94" value="&lt;font style=&quot;font-size: 26px;&quot;&gt;Layout Options/Button&lt;/font&gt;" style="swimlane;whiteSpace=wrap;html=1;startSize=40;fillColor=#ffe6cc;strokeColor=default;rounded=0;shadow=1;glass=0;" vertex="1" parent="1">
          <mxGeometry x="252" y="60" width="320" height="220" as="geometry">
            <mxRectangle x="280" y="200" width="140" height="30" as="alternateBounds" />
          </mxGeometry>
        </mxCell>
        <mxCell id="rEXdcL2Eh1WrbeDe-faA-95" value="&lt;b&gt;Responsibilities&lt;/b&gt;" style="swimlane;fontStyle=0;childLayout=stackLayout;horizontal=1;startSize=40;horizontalStack=0;resizeParent=1;resizeParentMax=0;resizeLast=0;collapsible=1;marginBottom=0;whiteSpace=wrap;html=1;fillColor=#d5e8d4;strokeColor=default;" vertex="1" parent="rEXdcL2Eh1WrbeDe-faA-94">
          <mxGeometry y="40" width="160" height="180" as="geometry" />
        </mxCell>
        <mxCell id="rEXdcL2Eh1WrbeDe-faA-96" value="&lt;ol&gt;&lt;li&gt;&amp;nbsp;&lt;/li&gt;&lt;/ol&gt;" style="text;html=1;strokeColor=none;fillColor=none;align=left;verticalAlign=middle;whiteSpace=wrap;rounded=0;" vertex="1" parent="rEXdcL2Eh1WrbeDe-faA-95">
          <mxGeometry y="40" width="160" height="140" as="geometry" />
        </mxCell>
        <mxCell id="rEXdcL2Eh1WrbeDe-faA-97" value="&lt;b&gt;Collaborations&lt;/b&gt;" style="swimlane;fontStyle=0;childLayout=stackLayout;horizontal=1;startSize=40;horizontalStack=0;resizeParent=1;resizeParentMax=0;resizeLast=0;collapsible=1;marginBottom=0;whiteSpace=wrap;html=1;fillColor=#e1d5e7;strokeColor=#000000;shadow=0;swimlaneLine=1;glass=0;rounded=0;" vertex="1" parent="rEXdcL2Eh1WrbeDe-faA-94">
          <mxGeometry x="160" y="40" width="160" height="180" as="geometry" />
        </mxCell>
        <mxCell id="rEXdcL2Eh1WrbeDe-faA-98" value="&lt;ol&gt;&lt;li&gt;&amp;nbsp;&lt;/li&gt;&lt;/ol&gt;" style="text;html=1;strokeColor=none;fillColor=none;align=left;verticalAlign=middle;whiteSpace=wrap;rounded=0;" vertex="1" parent="rEXdcL2Eh1WrbeDe-faA-97">
          <mxGeometry y="40" width="160" height="140" as="geometry" />
        </mxCell>
        <mxCell id="rEXdcL2Eh1WrbeDe-faA-99" value="&lt;font style=&quot;font-size: 26px;&quot;&gt;System Settings&lt;/font&gt;" style="swimlane;whiteSpace=wrap;html=1;startSize=40;fillColor=#ffe6cc;strokeColor=default;rounded=0;shadow=1;glass=0;" vertex="1" parent="1">
          <mxGeometry x="768" y="216" width="320" height="220" as="geometry">
            <mxRectangle x="280" y="200" width="140" height="30" as="alternateBounds" />
          </mxGeometry>
        </mxCell>
        <mxCell id="rEXdcL2Eh1WrbeDe-faA-100" value="&lt;b&gt;Responsibilities&lt;/b&gt;" style="swimlane;fontStyle=0;childLayout=stackLayout;horizontal=1;startSize=40;horizontalStack=0;resizeParent=1;resizeParentMax=0;resizeLast=0;collapsible=1;marginBottom=0;whiteSpace=wrap;html=1;fillColor=#d5e8d4;strokeColor=default;" vertex="1" parent="rEXdcL2Eh1WrbeDe-faA-99">
          <mxGeometry y="40" width="160" height="180" as="geometry" />
        </mxCell>
        <mxCell id="rEXdcL2Eh1WrbeDe-faA-101" value="&lt;ol&gt;&lt;li&gt;&amp;nbsp;&lt;/li&gt;&lt;/ol&gt;" style="text;html=1;strokeColor=none;fillColor=none;align=left;verticalAlign=middle;whiteSpace=wrap;rounded=0;" vertex="1" parent="rEXdcL2Eh1WrbeDe-faA-100">
          <mxGeometry y="40" width="160" height="140" as="geometry" />
        </mxCell>
        <mxCell id="rEXdcL2Eh1WrbeDe-faA-102" value="&lt;b&gt;Collaborations&lt;/b&gt;" style="swimlane;fontStyle=0;childLayout=stackLayout;horizontal=1;startSize=40;horizontalStack=0;resizeParent=1;resizeParentMax=0;resizeLast=0;collapsible=1;marginBottom=0;whiteSpace=wrap;html=1;fillColor=#e1d5e7;strokeColor=#000000;shadow=0;swimlaneLine=1;glass=0;rounded=0;" vertex="1" parent="rEXdcL2Eh1WrbeDe-faA-99">
          <mxGeometry x="160" y="40" width="160" height="180" as="geometry" />
        </mxCell>
        <mxCell id="rEXdcL2Eh1WrbeDe-faA-103" value="&lt;ol&gt;&lt;li&gt;&amp;nbsp;&lt;/li&gt;&lt;/ol&gt;" style="text;html=1;strokeColor=none;fillColor=none;align=left;verticalAlign=middle;whiteSpace=wrap;rounded=0;" vertex="1" parent="rEXdcL2Eh1WrbeDe-faA-102">
          <mxGeometry y="40" width="160" height="140" as="geometry" />
        </mxCell>
        <mxCell id="rEXdcL2Eh1WrbeDe-faA-104" value="&lt;font style=&quot;font-size: 26px;&quot;&gt;Progress Indicators&lt;/font&gt;" style="swimlane;whiteSpace=wrap;html=1;startSize=40;fillColor=#ffe6cc;strokeColor=default;rounded=0;shadow=1;glass=0;" vertex="1" parent="1">
          <mxGeometry x="1224" y="120" width="320" height="220" as="geometry">
            <mxRectangle x="280" y="200" width="140" height="30" as="alternateBounds" />
          </mxGeometry>
        </mxCell>
        <mxCell id="rEXdcL2Eh1WrbeDe-faA-105" value="&lt;b&gt;Responsibilities&lt;/b&gt;" style="swimlane;fontStyle=0;childLayout=stackLayout;horizontal=1;startSize=40;horizontalStack=0;resizeParent=1;resizeParentMax=0;resizeLast=0;collapsible=1;marginBottom=0;whiteSpace=wrap;html=1;fillColor=#d5e8d4;strokeColor=default;" vertex="1" parent="rEXdcL2Eh1WrbeDe-faA-104">
          <mxGeometry y="40" width="160" height="180" as="geometry" />
        </mxCell>
        <mxCell id="rEXdcL2Eh1WrbeDe-faA-106" value="&lt;ol&gt;&lt;li&gt;&amp;nbsp;&lt;/li&gt;&lt;/ol&gt;" style="text;html=1;strokeColor=none;fillColor=none;align=left;verticalAlign=middle;whiteSpace=wrap;rounded=0;" vertex="1" parent="rEXdcL2Eh1WrbeDe-faA-105">
          <mxGeometry y="40" width="160" height="140" as="geometry" />
        </mxCell>
        <mxCell id="rEXdcL2Eh1WrbeDe-faA-107" value="&lt;b&gt;Collaborations&lt;/b&gt;" style="swimlane;fontStyle=0;childLayout=stackLayout;horizontal=1;startSize=40;horizontalStack=0;resizeParent=1;resizeParentMax=0;resizeLast=0;collapsible=1;marginBottom=0;whiteSpace=wrap;html=1;fillColor=#e1d5e7;strokeColor=#000000;shadow=0;swimlaneLine=1;glass=0;rounded=0;" vertex="1" parent="rEXdcL2Eh1WrbeDe-faA-104">
          <mxGeometry x="160" y="40" width="160" height="180" as="geometry" />
        </mxCell>
        <mxCell id="rEXdcL2Eh1WrbeDe-faA-108" value="&lt;ol&gt;&lt;li&gt;&amp;nbsp;&lt;/li&gt;&lt;/ol&gt;" style="text;html=1;strokeColor=none;fillColor=none;align=left;verticalAlign=middle;whiteSpace=wrap;rounded=0;" vertex="1" parent="rEXdcL2Eh1WrbeDe-faA-107">
          <mxGeometry y="40" width="160" height="140" as="geometry" />
        </mxCell>
        <mxCell id="rEXdcL2Eh1WrbeDe-faA-109" value="&lt;font style=&quot;font-size: 26px;&quot;&gt;Inference Tab&lt;/font&gt;" style="swimlane;whiteSpace=wrap;html=1;startSize=40;fillColor=#ffe6cc;strokeColor=default;rounded=0;shadow=1;glass=0;" vertex="1" parent="1">
          <mxGeometry x="-564" y="-624" width="320" height="220" as="geometry">
            <mxRectangle x="280" y="200" width="140" height="30" as="alternateBounds" />
          </mxGeometry>
        </mxCell>
        <mxCell id="rEXdcL2Eh1WrbeDe-faA-110" value="&lt;b&gt;Responsibilities&lt;/b&gt;" style="swimlane;fontStyle=0;childLayout=stackLayout;horizontal=1;startSize=40;horizontalStack=0;resizeParent=1;resizeParentMax=0;resizeLast=0;collapsible=1;marginBottom=0;whiteSpace=wrap;html=1;fillColor=#d5e8d4;strokeColor=default;" vertex="1" parent="rEXdcL2Eh1WrbeDe-faA-109">
          <mxGeometry y="40" width="160" height="180" as="geometry" />
        </mxCell>
        <mxCell id="rEXdcL2Eh1WrbeDe-faA-111" value="&lt;ol&gt;&lt;li&gt;&amp;nbsp;&lt;/li&gt;&lt;/ol&gt;" style="text;html=1;strokeColor=none;fillColor=none;align=left;verticalAlign=middle;whiteSpace=wrap;rounded=0;" vertex="1" parent="rEXdcL2Eh1WrbeDe-faA-110">
          <mxGeometry y="40" width="160" height="140" as="geometry" />
        </mxCell>
        <mxCell id="rEXdcL2Eh1WrbeDe-faA-112" value="&lt;b&gt;Collaborations&lt;/b&gt;" style="swimlane;fontStyle=0;childLayout=stackLayout;horizontal=1;startSize=40;horizontalStack=0;resizeParent=1;resizeParentMax=0;resizeLast=0;collapsible=1;marginBottom=0;whiteSpace=wrap;html=1;fillColor=#e1d5e7;strokeColor=#000000;shadow=0;swimlaneLine=1;glass=0;rounded=0;" vertex="1" parent="rEXdcL2Eh1WrbeDe-faA-109">
          <mxGeometry x="160" y="40" width="160" height="180" as="geometry" />
        </mxCell>
        <mxCell id="rEXdcL2Eh1WrbeDe-faA-113" value="&lt;ol&gt;&lt;li&gt;&amp;nbsp;&lt;/li&gt;&lt;/ol&gt;" style="text;html=1;strokeColor=none;fillColor=none;align=left;verticalAlign=middle;whiteSpace=wrap;rounded=0;" vertex="1" parent="rEXdcL2Eh1WrbeDe-faA-112">
          <mxGeometry y="40" width="160" height="140" as="geometry" />
        </mxCell>
        <mxCell id="rEXdcL2Eh1WrbeDe-faA-114" value="&lt;font style=&quot;font-size: 26px;&quot;&gt;Custom Classes Tab&lt;/font&gt;" style="swimlane;whiteSpace=wrap;html=1;startSize=40;fillColor=#ffe6cc;strokeColor=default;rounded=0;shadow=1;glass=0;" vertex="1" parent="1">
          <mxGeometry x="-1752" y="-672" width="320" height="220" as="geometry">
            <mxRectangle x="280" y="200" width="140" height="30" as="alternateBounds" />
          </mxGeometry>
        </mxCell>
        <mxCell id="rEXdcL2Eh1WrbeDe-faA-115" value="&lt;b&gt;Responsibilities&lt;/b&gt;" style="swimlane;fontStyle=0;childLayout=stackLayout;horizontal=1;startSize=40;horizontalStack=0;resizeParent=1;resizeParentMax=0;resizeLast=0;collapsible=1;marginBottom=0;whiteSpace=wrap;html=1;fillColor=#d5e8d4;strokeColor=default;" vertex="1" parent="rEXdcL2Eh1WrbeDe-faA-114">
          <mxGeometry y="40" width="160" height="180" as="geometry" />
        </mxCell>
        <mxCell id="rEXdcL2Eh1WrbeDe-faA-116" value="&lt;ol&gt;&lt;li&gt;&amp;nbsp;&lt;/li&gt;&lt;/ol&gt;" style="text;html=1;strokeColor=none;fillColor=none;align=left;verticalAlign=middle;whiteSpace=wrap;rounded=0;" vertex="1" parent="rEXdcL2Eh1WrbeDe-faA-115">
          <mxGeometry y="40" width="160" height="140" as="geometry" />
        </mxCell>
        <mxCell id="rEXdcL2Eh1WrbeDe-faA-117" value="&lt;b&gt;Collaborations&lt;/b&gt;" style="swimlane;fontStyle=0;childLayout=stackLayout;horizontal=1;startSize=40;horizontalStack=0;resizeParent=1;resizeParentMax=0;resizeLast=0;collapsible=1;marginBottom=0;whiteSpace=wrap;html=1;fillColor=#e1d5e7;strokeColor=#000000;shadow=0;swimlaneLine=1;glass=0;rounded=0;" vertex="1" parent="rEXdcL2Eh1WrbeDe-faA-114">
          <mxGeometry x="160" y="40" width="160" height="180" as="geometry" />
        </mxCell>
        <mxCell id="rEXdcL2Eh1WrbeDe-faA-118" value="&lt;ol&gt;&lt;li&gt;&amp;nbsp;&lt;/li&gt;&lt;/ol&gt;" style="text;html=1;strokeColor=none;fillColor=none;align=left;verticalAlign=middle;whiteSpace=wrap;rounded=0;" vertex="1" parent="rEXdcL2Eh1WrbeDe-faA-117">
          <mxGeometry y="40" width="160" height="140" as="geometry" />
        </mxCell>
        <mxCell id="rEXdcL2Eh1WrbeDe-faA-119" value="&lt;font style=&quot;font-size: 26px;&quot;&gt;Code Generation Kit&lt;/font&gt;" style="swimlane;whiteSpace=wrap;html=1;startSize=40;fillColor=#ffe6cc;strokeColor=default;rounded=0;shadow=1;glass=0;" vertex="1" parent="1">
          <mxGeometry x="864" y="-1356" width="320" height="220" as="geometry">
            <mxRectangle x="280" y="200" width="140" height="30" as="alternateBounds" />
          </mxGeometry>
        </mxCell>
        <mxCell id="rEXdcL2Eh1WrbeDe-faA-120" value="&lt;b&gt;Responsibilities&lt;/b&gt;" style="swimlane;fontStyle=0;childLayout=stackLayout;horizontal=1;startSize=40;horizontalStack=0;resizeParent=1;resizeParentMax=0;resizeLast=0;collapsible=1;marginBottom=0;whiteSpace=wrap;html=1;fillColor=#d5e8d4;strokeColor=default;" vertex="1" parent="rEXdcL2Eh1WrbeDe-faA-119">
          <mxGeometry y="40" width="160" height="180" as="geometry" />
        </mxCell>
        <mxCell id="rEXdcL2Eh1WrbeDe-faA-121" value="&lt;ol&gt;&lt;li&gt;&amp;nbsp;&lt;/li&gt;&lt;/ol&gt;" style="text;html=1;strokeColor=none;fillColor=none;align=left;verticalAlign=middle;whiteSpace=wrap;rounded=0;" vertex="1" parent="rEXdcL2Eh1WrbeDe-faA-120">
          <mxGeometry y="40" width="160" height="140" as="geometry" />
        </mxCell>
        <mxCell id="rEXdcL2Eh1WrbeDe-faA-122" value="&lt;b&gt;Collaborations&lt;/b&gt;" style="swimlane;fontStyle=0;childLayout=stackLayout;horizontal=1;startSize=40;horizontalStack=0;resizeParent=1;resizeParentMax=0;resizeLast=0;collapsible=1;marginBottom=0;whiteSpace=wrap;html=1;fillColor=#e1d5e7;strokeColor=#000000;shadow=0;swimlaneLine=1;glass=0;rounded=0;" vertex="1" parent="rEXdcL2Eh1WrbeDe-faA-119">
          <mxGeometry x="160" y="40" width="160" height="180" as="geometry" />
        </mxCell>
        <mxCell id="rEXdcL2Eh1WrbeDe-faA-123" value="&lt;ol&gt;&lt;li&gt;&amp;nbsp;&lt;/li&gt;&lt;/ol&gt;" style="text;html=1;strokeColor=none;fillColor=none;align=left;verticalAlign=middle;whiteSpace=wrap;rounded=0;" vertex="1" parent="rEXdcL2Eh1WrbeDe-faA-122">
          <mxGeometry y="40" width="160" height="140" as="geometry" />
        </mxCell>
        <mxCell id="rEXdcL2Eh1WrbeDe-faA-124" value="&lt;font style=&quot;font-size: 26px;&quot;&gt;Quick Access Settings&lt;/font&gt;" style="swimlane;whiteSpace=wrap;html=1;startSize=40;fillColor=#ffe6cc;strokeColor=default;rounded=0;shadow=1;glass=0;" vertex="1" parent="1">
          <mxGeometry x="300" y="396" width="320" height="220" as="geometry">
            <mxRectangle x="280" y="200" width="140" height="30" as="alternateBounds" />
          </mxGeometry>
        </mxCell>
        <mxCell id="rEXdcL2Eh1WrbeDe-faA-125" value="&lt;b&gt;Responsibilities&lt;/b&gt;" style="swimlane;fontStyle=0;childLayout=stackLayout;horizontal=1;startSize=40;horizontalStack=0;resizeParent=1;resizeParentMax=0;resizeLast=0;collapsible=1;marginBottom=0;whiteSpace=wrap;html=1;fillColor=#d5e8d4;strokeColor=default;" vertex="1" parent="rEXdcL2Eh1WrbeDe-faA-124">
          <mxGeometry y="40" width="160" height="180" as="geometry" />
        </mxCell>
        <mxCell id="rEXdcL2Eh1WrbeDe-faA-126" value="&lt;ol&gt;&lt;li&gt;&amp;nbsp;&lt;/li&gt;&lt;/ol&gt;" style="text;html=1;strokeColor=none;fillColor=none;align=left;verticalAlign=middle;whiteSpace=wrap;rounded=0;" vertex="1" parent="rEXdcL2Eh1WrbeDe-faA-125">
          <mxGeometry y="40" width="160" height="140" as="geometry" />
        </mxCell>
        <mxCell id="rEXdcL2Eh1WrbeDe-faA-127" value="&lt;b&gt;Collaborations&lt;/b&gt;" style="swimlane;fontStyle=0;childLayout=stackLayout;horizontal=1;startSize=40;horizontalStack=0;resizeParent=1;resizeParentMax=0;resizeLast=0;collapsible=1;marginBottom=0;whiteSpace=wrap;html=1;fillColor=#e1d5e7;strokeColor=#000000;shadow=0;swimlaneLine=1;glass=0;rounded=0;" vertex="1" parent="rEXdcL2Eh1WrbeDe-faA-124">
          <mxGeometry x="160" y="40" width="160" height="180" as="geometry" />
        </mxCell>
        <mxCell id="rEXdcL2Eh1WrbeDe-faA-128" value="&lt;ol&gt;&lt;li&gt;&amp;nbsp;&lt;/li&gt;&lt;/ol&gt;" style="text;html=1;strokeColor=none;fillColor=none;align=left;verticalAlign=middle;whiteSpace=wrap;rounded=0;" vertex="1" parent="rEXdcL2Eh1WrbeDe-faA-127">
          <mxGeometry y="40" width="160" height="140" as="geometry" />
        </mxCell>
        <mxCell id="rEXdcL2Eh1WrbeDe-faA-129" value="&lt;font style=&quot;font-size: 26px;&quot;&gt;Theme Button&lt;/font&gt;" style="swimlane;whiteSpace=wrap;html=1;startSize=40;fillColor=#ffe6cc;strokeColor=default;rounded=0;shadow=1;glass=0;" vertex="1" parent="1">
          <mxGeometry x="-60" y="624" width="320" height="220" as="geometry">
            <mxRectangle x="280" y="200" width="140" height="30" as="alternateBounds" />
          </mxGeometry>
        </mxCell>
        <mxCell id="rEXdcL2Eh1WrbeDe-faA-130" value="&lt;b&gt;Responsibilities&lt;/b&gt;" style="swimlane;fontStyle=0;childLayout=stackLayout;horizontal=1;startSize=40;horizontalStack=0;resizeParent=1;resizeParentMax=0;resizeLast=0;collapsible=1;marginBottom=0;whiteSpace=wrap;html=1;fillColor=#d5e8d4;strokeColor=default;" vertex="1" parent="rEXdcL2Eh1WrbeDe-faA-129">
          <mxGeometry y="40" width="160" height="180" as="geometry" />
        </mxCell>
        <mxCell id="rEXdcL2Eh1WrbeDe-faA-131" value="&lt;ol&gt;&lt;li&gt;&amp;nbsp;&lt;/li&gt;&lt;/ol&gt;" style="text;html=1;strokeColor=none;fillColor=none;align=left;verticalAlign=middle;whiteSpace=wrap;rounded=0;" vertex="1" parent="rEXdcL2Eh1WrbeDe-faA-130">
          <mxGeometry y="40" width="160" height="140" as="geometry" />
        </mxCell>
        <mxCell id="rEXdcL2Eh1WrbeDe-faA-132" value="&lt;b&gt;Collaborations&lt;/b&gt;" style="swimlane;fontStyle=0;childLayout=stackLayout;horizontal=1;startSize=40;horizontalStack=0;resizeParent=1;resizeParentMax=0;resizeLast=0;collapsible=1;marginBottom=0;whiteSpace=wrap;html=1;fillColor=#e1d5e7;strokeColor=#000000;shadow=0;swimlaneLine=1;glass=0;rounded=0;" vertex="1" parent="rEXdcL2Eh1WrbeDe-faA-129">
          <mxGeometry x="160" y="40" width="160" height="180" as="geometry" />
        </mxCell>
        <mxCell id="rEXdcL2Eh1WrbeDe-faA-133" value="&lt;ol&gt;&lt;li&gt;&amp;nbsp;&lt;/li&gt;&lt;/ol&gt;" style="text;html=1;strokeColor=none;fillColor=none;align=left;verticalAlign=middle;whiteSpace=wrap;rounded=0;" vertex="1" parent="rEXdcL2Eh1WrbeDe-faA-132">
          <mxGeometry y="40" width="160" height="140" as="geometry" />
        </mxCell>
        <mxCell id="rEXdcL2Eh1WrbeDe-faA-134" value="&lt;font style=&quot;font-size: 26px;&quot;&gt;Undo Redo Buttons&lt;/font&gt;" style="swimlane;whiteSpace=wrap;html=1;startSize=40;fillColor=#ffe6cc;strokeColor=default;rounded=0;shadow=1;glass=0;" vertex="1" parent="1">
          <mxGeometry x="-444" y="456" width="320" height="220" as="geometry">
            <mxRectangle x="280" y="200" width="140" height="30" as="alternateBounds" />
          </mxGeometry>
        </mxCell>
        <mxCell id="rEXdcL2Eh1WrbeDe-faA-135" value="&lt;b&gt;Responsibilities&lt;/b&gt;" style="swimlane;fontStyle=0;childLayout=stackLayout;horizontal=1;startSize=40;horizontalStack=0;resizeParent=1;resizeParentMax=0;resizeLast=0;collapsible=1;marginBottom=0;whiteSpace=wrap;html=1;fillColor=#d5e8d4;strokeColor=default;" vertex="1" parent="rEXdcL2Eh1WrbeDe-faA-134">
          <mxGeometry y="40" width="160" height="180" as="geometry" />
        </mxCell>
        <mxCell id="rEXdcL2Eh1WrbeDe-faA-136" value="&lt;ol&gt;&lt;li&gt;&amp;nbsp;&lt;/li&gt;&lt;/ol&gt;" style="text;html=1;strokeColor=none;fillColor=none;align=left;verticalAlign=middle;whiteSpace=wrap;rounded=0;" vertex="1" parent="rEXdcL2Eh1WrbeDe-faA-135">
          <mxGeometry y="40" width="160" height="140" as="geometry" />
        </mxCell>
        <mxCell id="rEXdcL2Eh1WrbeDe-faA-137" value="&lt;b&gt;Collaborations&lt;/b&gt;" style="swimlane;fontStyle=0;childLayout=stackLayout;horizontal=1;startSize=40;horizontalStack=0;resizeParent=1;resizeParentMax=0;resizeLast=0;collapsible=1;marginBottom=0;whiteSpace=wrap;html=1;fillColor=#e1d5e7;strokeColor=#000000;shadow=0;swimlaneLine=1;glass=0;rounded=0;" vertex="1" parent="rEXdcL2Eh1WrbeDe-faA-134">
          <mxGeometry x="160" y="40" width="160" height="180" as="geometry" />
        </mxCell>
        <mxCell id="rEXdcL2Eh1WrbeDe-faA-138" value="&lt;ol&gt;&lt;li&gt;&amp;nbsp;&lt;/li&gt;&lt;/ol&gt;" style="text;html=1;strokeColor=none;fillColor=none;align=left;verticalAlign=middle;whiteSpace=wrap;rounded=0;" vertex="1" parent="rEXdcL2Eh1WrbeDe-faA-137">
          <mxGeometry y="40" width="160" height="140" as="geometry" />
        </mxCell>
        <mxCell id="rEXdcL2Eh1WrbeDe-faA-139" value="&lt;font style=&quot;font-size: 26px;&quot;&gt;Trained Model Versioning&lt;/font&gt;" style="swimlane;whiteSpace=wrap;html=1;startSize=40;fillColor=#ffe6cc;strokeColor=default;rounded=0;shadow=1;glass=0;" vertex="1" parent="1">
          <mxGeometry x="-912" y="204" width="320" height="220" as="geometry">
            <mxRectangle x="280" y="200" width="140" height="30" as="alternateBounds" />
          </mxGeometry>
        </mxCell>
        <mxCell id="rEXdcL2Eh1WrbeDe-faA-140" value="&lt;b&gt;Responsibilities&lt;/b&gt;" style="swimlane;fontStyle=0;childLayout=stackLayout;horizontal=1;startSize=40;horizontalStack=0;resizeParent=1;resizeParentMax=0;resizeLast=0;collapsible=1;marginBottom=0;whiteSpace=wrap;html=1;fillColor=#d5e8d4;strokeColor=default;" vertex="1" parent="rEXdcL2Eh1WrbeDe-faA-139">
          <mxGeometry y="40" width="160" height="180" as="geometry" />
        </mxCell>
        <mxCell id="rEXdcL2Eh1WrbeDe-faA-141" value="&lt;ol&gt;&lt;li&gt;&amp;nbsp;&lt;/li&gt;&lt;/ol&gt;" style="text;html=1;strokeColor=none;fillColor=none;align=left;verticalAlign=middle;whiteSpace=wrap;rounded=0;" vertex="1" parent="rEXdcL2Eh1WrbeDe-faA-140">
          <mxGeometry y="40" width="160" height="140" as="geometry" />
        </mxCell>
        <mxCell id="rEXdcL2Eh1WrbeDe-faA-142" value="&lt;b&gt;Collaborations&lt;/b&gt;" style="swimlane;fontStyle=0;childLayout=stackLayout;horizontal=1;startSize=40;horizontalStack=0;resizeParent=1;resizeParentMax=0;resizeLast=0;collapsible=1;marginBottom=0;whiteSpace=wrap;html=1;fillColor=#e1d5e7;strokeColor=#000000;shadow=0;swimlaneLine=1;glass=0;rounded=0;" vertex="1" parent="rEXdcL2Eh1WrbeDe-faA-139">
          <mxGeometry x="160" y="40" width="160" height="180" as="geometry" />
        </mxCell>
        <mxCell id="rEXdcL2Eh1WrbeDe-faA-143" value="&lt;ol&gt;&lt;li&gt;&amp;nbsp;&lt;/li&gt;&lt;/ol&gt;" style="text;html=1;strokeColor=none;fillColor=none;align=left;verticalAlign=middle;whiteSpace=wrap;rounded=0;" vertex="1" parent="rEXdcL2Eh1WrbeDe-faA-142">
          <mxGeometry y="40" width="160" height="140" as="geometry" />
        </mxCell>
        <mxCell id="rEXdcL2Eh1WrbeDe-faA-144" value="&lt;font style=&quot;font-size: 26px;&quot;&gt;Transfer Learning Mechanism&lt;/font&gt;" style="swimlane;whiteSpace=wrap;html=1;startSize=40;fillColor=#ffe6cc;strokeColor=default;rounded=0;shadow=1;glass=0;" vertex="1" parent="1">
          <mxGeometry x="-1680" y="120" width="480" height="220" as="geometry">
            <mxRectangle x="280" y="200" width="140" height="30" as="alternateBounds" />
          </mxGeometry>
        </mxCell>
        <mxCell id="rEXdcL2Eh1WrbeDe-faA-145" value="&lt;b&gt;Responsibilities&lt;/b&gt;" style="swimlane;fontStyle=0;childLayout=stackLayout;horizontal=1;startSize=40;horizontalStack=0;resizeParent=1;resizeParentMax=0;resizeLast=0;collapsible=1;marginBottom=0;whiteSpace=wrap;html=1;fillColor=#d5e8d4;strokeColor=default;" vertex="1" parent="rEXdcL2Eh1WrbeDe-faA-144">
          <mxGeometry y="40" width="240" height="180" as="geometry" />
        </mxCell>
        <mxCell id="rEXdcL2Eh1WrbeDe-faA-146" value="&lt;ol&gt;&lt;li&gt;&amp;nbsp;&lt;/li&gt;&lt;/ol&gt;" style="text;html=1;strokeColor=none;fillColor=none;align=left;verticalAlign=middle;whiteSpace=wrap;rounded=0;" vertex="1" parent="rEXdcL2Eh1WrbeDe-faA-145">
          <mxGeometry y="40" width="240" height="140" as="geometry" />
        </mxCell>
        <mxCell id="rEXdcL2Eh1WrbeDe-faA-147" value="&lt;b&gt;Collaborations&lt;/b&gt;" style="swimlane;fontStyle=0;childLayout=stackLayout;horizontal=1;startSize=40;horizontalStack=0;resizeParent=1;resizeParentMax=0;resizeLast=0;collapsible=1;marginBottom=0;whiteSpace=wrap;html=1;fillColor=#e1d5e7;strokeColor=#000000;shadow=0;swimlaneLine=1;glass=0;rounded=0;" vertex="1" parent="rEXdcL2Eh1WrbeDe-faA-144">
          <mxGeometry x="240" y="40" width="240" height="180" as="geometry" />
        </mxCell>
        <mxCell id="rEXdcL2Eh1WrbeDe-faA-148" value="&lt;ol&gt;&lt;li&gt;&amp;nbsp;&lt;/li&gt;&lt;/ol&gt;" style="text;html=1;strokeColor=none;fillColor=none;align=left;verticalAlign=middle;whiteSpace=wrap;rounded=0;" vertex="1" parent="rEXdcL2Eh1WrbeDe-faA-147">
          <mxGeometry y="40" width="240" height="140" as="geometry" />
        </mxCell>
        <mxCell id="rEXdcL2Eh1WrbeDe-faA-149" value="&lt;span style=&quot;font-size: 26px;&quot;&gt;Model Loading from Artefacts&lt;/span&gt;" style="swimlane;whiteSpace=wrap;html=1;startSize=40;fillColor=#ffe6cc;strokeColor=default;rounded=0;shadow=1;glass=0;" vertex="1" parent="1">
          <mxGeometry x="-1728" y="408" width="384" height="220" as="geometry">
            <mxRectangle x="280" y="200" width="140" height="30" as="alternateBounds" />
          </mxGeometry>
        </mxCell>
        <mxCell id="rEXdcL2Eh1WrbeDe-faA-150" value="&lt;b&gt;Responsibilities&lt;/b&gt;" style="swimlane;fontStyle=0;childLayout=stackLayout;horizontal=1;startSize=40;horizontalStack=0;resizeParent=1;resizeParentMax=0;resizeLast=0;collapsible=1;marginBottom=0;whiteSpace=wrap;html=1;fillColor=#d5e8d4;strokeColor=default;" vertex="1" parent="rEXdcL2Eh1WrbeDe-faA-149">
          <mxGeometry y="40" width="192" height="180" as="geometry" />
        </mxCell>
        <mxCell id="rEXdcL2Eh1WrbeDe-faA-151" value="&lt;ol&gt;&lt;li&gt;&amp;nbsp;&lt;/li&gt;&lt;/ol&gt;" style="text;html=1;strokeColor=none;fillColor=none;align=left;verticalAlign=middle;whiteSpace=wrap;rounded=0;" vertex="1" parent="rEXdcL2Eh1WrbeDe-faA-150">
          <mxGeometry y="40" width="192" height="140" as="geometry" />
        </mxCell>
        <mxCell id="rEXdcL2Eh1WrbeDe-faA-152" value="&lt;b&gt;Collaborations&lt;/b&gt;" style="swimlane;fontStyle=0;childLayout=stackLayout;horizontal=1;startSize=40;horizontalStack=0;resizeParent=1;resizeParentMax=0;resizeLast=0;collapsible=1;marginBottom=0;whiteSpace=wrap;html=1;fillColor=#e1d5e7;strokeColor=#000000;shadow=0;swimlaneLine=1;glass=0;rounded=0;" vertex="1" parent="rEXdcL2Eh1WrbeDe-faA-149">
          <mxGeometry x="192" y="40" width="192" height="180" as="geometry" />
        </mxCell>
        <mxCell id="rEXdcL2Eh1WrbeDe-faA-153" value="&lt;ol&gt;&lt;li&gt;&amp;nbsp;&lt;/li&gt;&lt;/ol&gt;" style="text;html=1;strokeColor=none;fillColor=none;align=left;verticalAlign=middle;whiteSpace=wrap;rounded=0;" vertex="1" parent="rEXdcL2Eh1WrbeDe-faA-152">
          <mxGeometry y="40" width="192" height="140" as="geometry" />
        </mxCell>
        <mxCell id="rEXdcL2Eh1WrbeDe-faA-154" value="&lt;span style=&quot;font-size: 26px;&quot;&gt;Open Project Button&lt;/span&gt;" style="swimlane;whiteSpace=wrap;html=1;startSize=40;fillColor=#ffe6cc;strokeColor=default;rounded=0;shadow=1;glass=0;" vertex="1" parent="1">
          <mxGeometry x="-1272" y="396" width="320" height="220" as="geometry">
            <mxRectangle x="280" y="200" width="140" height="30" as="alternateBounds" />
          </mxGeometry>
        </mxCell>
        <mxCell id="rEXdcL2Eh1WrbeDe-faA-155" value="&lt;b&gt;Responsibilities&lt;/b&gt;" style="swimlane;fontStyle=0;childLayout=stackLayout;horizontal=1;startSize=40;horizontalStack=0;resizeParent=1;resizeParentMax=0;resizeLast=0;collapsible=1;marginBottom=0;whiteSpace=wrap;html=1;fillColor=#d5e8d4;strokeColor=default;" vertex="1" parent="rEXdcL2Eh1WrbeDe-faA-154">
          <mxGeometry y="40" width="160" height="180" as="geometry" />
        </mxCell>
        <mxCell id="rEXdcL2Eh1WrbeDe-faA-156" value="&lt;ol&gt;&lt;li&gt;&amp;nbsp;&lt;/li&gt;&lt;/ol&gt;" style="text;html=1;strokeColor=none;fillColor=none;align=left;verticalAlign=middle;whiteSpace=wrap;rounded=0;" vertex="1" parent="rEXdcL2Eh1WrbeDe-faA-155">
          <mxGeometry y="40" width="160" height="140" as="geometry" />
        </mxCell>
        <mxCell id="rEXdcL2Eh1WrbeDe-faA-157" value="&lt;b&gt;Collaborations&lt;/b&gt;" style="swimlane;fontStyle=0;childLayout=stackLayout;horizontal=1;startSize=40;horizontalStack=0;resizeParent=1;resizeParentMax=0;resizeLast=0;collapsible=1;marginBottom=0;whiteSpace=wrap;html=1;fillColor=#e1d5e7;strokeColor=#000000;shadow=0;swimlaneLine=1;glass=0;rounded=0;" vertex="1" parent="rEXdcL2Eh1WrbeDe-faA-154">
          <mxGeometry x="160" y="40" width="160" height="180" as="geometry" />
        </mxCell>
        <mxCell id="rEXdcL2Eh1WrbeDe-faA-158" value="&lt;ol&gt;&lt;li&gt;&amp;nbsp;&lt;/li&gt;&lt;/ol&gt;" style="text;html=1;strokeColor=none;fillColor=none;align=left;verticalAlign=middle;whiteSpace=wrap;rounded=0;" vertex="1" parent="rEXdcL2Eh1WrbeDe-faA-157">
          <mxGeometry y="40" width="160" height="140" as="geometry" />
        </mxCell>
        <mxCell id="rEXdcL2Eh1WrbeDe-faA-159" value="&lt;font style=&quot;font-size: 26px;&quot;&gt;`Import Graph as Model` Button&lt;/font&gt;" style="swimlane;whiteSpace=wrap;html=1;startSize=40;fillColor=#ffe6cc;strokeColor=default;rounded=0;shadow=1;glass=0;" vertex="1" parent="1">
          <mxGeometry x="-936" y="492" width="480" height="220" as="geometry">
            <mxRectangle x="280" y="200" width="140" height="30" as="alternateBounds" />
          </mxGeometry>
        </mxCell>
        <mxCell id="rEXdcL2Eh1WrbeDe-faA-160" value="&lt;b&gt;Responsibilities&lt;/b&gt;" style="swimlane;fontStyle=0;childLayout=stackLayout;horizontal=1;startSize=40;horizontalStack=0;resizeParent=1;resizeParentMax=0;resizeLast=0;collapsible=1;marginBottom=0;whiteSpace=wrap;html=1;fillColor=#d5e8d4;strokeColor=default;" vertex="1" parent="rEXdcL2Eh1WrbeDe-faA-159">
          <mxGeometry y="40" width="240" height="180" as="geometry" />
        </mxCell>
        <mxCell id="rEXdcL2Eh1WrbeDe-faA-161" value="&lt;ol&gt;&lt;li&gt;&amp;nbsp;&lt;/li&gt;&lt;/ol&gt;" style="text;html=1;strokeColor=none;fillColor=none;align=left;verticalAlign=middle;whiteSpace=wrap;rounded=0;" vertex="1" parent="rEXdcL2Eh1WrbeDe-faA-160">
          <mxGeometry y="40" width="240" height="140" as="geometry" />
        </mxCell>
        <mxCell id="rEXdcL2Eh1WrbeDe-faA-162" value="&lt;b&gt;Collaborations&lt;/b&gt;" style="swimlane;fontStyle=0;childLayout=stackLayout;horizontal=1;startSize=40;horizontalStack=0;resizeParent=1;resizeParentMax=0;resizeLast=0;collapsible=1;marginBottom=0;whiteSpace=wrap;html=1;fillColor=#e1d5e7;strokeColor=#000000;shadow=0;swimlaneLine=1;glass=0;rounded=0;" vertex="1" parent="rEXdcL2Eh1WrbeDe-faA-159">
          <mxGeometry x="240" y="40" width="240" height="180" as="geometry" />
        </mxCell>
        <mxCell id="rEXdcL2Eh1WrbeDe-faA-163" value="&lt;ol&gt;&lt;li&gt;&amp;nbsp;&lt;/li&gt;&lt;/ol&gt;" style="text;html=1;strokeColor=none;fillColor=none;align=left;verticalAlign=middle;whiteSpace=wrap;rounded=0;" vertex="1" parent="rEXdcL2Eh1WrbeDe-faA-162">
          <mxGeometry y="40" width="240" height="140" as="geometry" />
        </mxCell>
      </root>
    </mxGraphModel>
  </diagram>
</mxfile>
